<mxfile host="app.diagrams.net" modified="2022-03-06T06:17:31.900Z" agent="5.0 (Windows NT 10.0; Win64; x64) AppleWebKit/537.36 (KHTML, like Gecko) Chrome/99.0.4844.51 Safari/537.36" etag="wZz6PMdZXnYxGl8iFUoW" version="16.6.6" type="github">
  <diagram id="r9-Z25tkTCDo7A72Bx3v" name="MapReduce-1">
    <mxGraphModel dx="824" dy="817" grid="1" gridSize="10" guides="1" tooltips="1" connect="1" arrows="1" fold="1" page="1" pageScale="1" pageWidth="827" pageHeight="1169" math="0" shadow="0">
      <root>
        <mxCell id="0" />
        <mxCell id="1" parent="0" />
        <mxCell id="fLGgPZIdy_u78TRsAerz-60" value="" style="rounded=0;whiteSpace=wrap;html=1;" vertex="1" parent="1">
          <mxGeometry x="493" y="475.38" width="260" height="114.62" as="geometry" />
        </mxCell>
        <mxCell id="fLGgPZIdy_u78TRsAerz-57" value="" style="rounded=0;whiteSpace=wrap;html=1;" vertex="1" parent="1">
          <mxGeometry x="85" y="240" width="240" height="90" as="geometry" />
        </mxCell>
        <mxCell id="fLGgPZIdy_u78TRsAerz-47" value="" style="rounded=0;whiteSpace=wrap;html=1;" vertex="1" parent="1">
          <mxGeometry x="60" y="340" width="410" height="270" as="geometry" />
        </mxCell>
        <mxCell id="W38biKBEEpCUViYtdmig-1" value="Input 1 (a b)" style="rounded=0;whiteSpace=wrap;html=1;" parent="1" vertex="1">
          <mxGeometry x="85" y="380" width="80" height="30" as="geometry" />
        </mxCell>
        <mxCell id="W38biKBEEpCUViYtdmig-2" value="" style="endArrow=classic;html=1;rounded=0;startArrow=none;" parent="1" source="W38biKBEEpCUViYtdmig-3" edge="1">
          <mxGeometry width="50" height="50" relative="1" as="geometry">
            <mxPoint x="165" y="394.5" as="sourcePoint" />
            <mxPoint x="235" y="395" as="targetPoint" />
          </mxGeometry>
        </mxCell>
        <mxCell id="W38biKBEEpCUViYtdmig-3" value="map" style="text;html=1;strokeColor=none;fillColor=none;align=center;verticalAlign=middle;whiteSpace=wrap;rounded=0;" parent="1" vertex="1">
          <mxGeometry x="185" y="380" width="30" height="30" as="geometry" />
        </mxCell>
        <mxCell id="W38biKBEEpCUViYtdmig-4" value="" style="endArrow=none;html=1;rounded=0;exitX=1;exitY=0.5;exitDx=0;exitDy=0;" parent="1" target="W38biKBEEpCUViYtdmig-3" edge="1" source="W38biKBEEpCUViYtdmig-1">
          <mxGeometry width="50" height="50" relative="1" as="geometry">
            <mxPoint x="165" y="389.5" as="sourcePoint" />
            <mxPoint x="305" y="390" as="targetPoint" />
          </mxGeometry>
        </mxCell>
        <mxCell id="fLGgPZIdy_u78TRsAerz-4" value="Input 2 (b)" style="rounded=0;whiteSpace=wrap;html=1;" vertex="1" parent="1">
          <mxGeometry x="85" y="420" width="80" height="30" as="geometry" />
        </mxCell>
        <mxCell id="fLGgPZIdy_u78TRsAerz-5" value="" style="endArrow=classic;html=1;rounded=0;startArrow=none;" edge="1" parent="1" source="fLGgPZIdy_u78TRsAerz-6">
          <mxGeometry width="50" height="50" relative="1" as="geometry">
            <mxPoint x="165" y="434.5" as="sourcePoint" />
            <mxPoint x="235" y="435" as="targetPoint" />
          </mxGeometry>
        </mxCell>
        <mxCell id="fLGgPZIdy_u78TRsAerz-6" value="map" style="text;html=1;strokeColor=none;fillColor=none;align=center;verticalAlign=middle;whiteSpace=wrap;rounded=0;" vertex="1" parent="1">
          <mxGeometry x="185" y="420" width="30" height="30" as="geometry" />
        </mxCell>
        <mxCell id="fLGgPZIdy_u78TRsAerz-7" value="" style="endArrow=none;html=1;rounded=0;exitX=1;exitY=0.5;exitDx=0;exitDy=0;" edge="1" parent="1" source="fLGgPZIdy_u78TRsAerz-4" target="fLGgPZIdy_u78TRsAerz-6">
          <mxGeometry width="50" height="50" relative="1" as="geometry">
            <mxPoint x="165" y="429.5" as="sourcePoint" />
            <mxPoint x="305" y="430" as="targetPoint" />
          </mxGeometry>
        </mxCell>
        <mxCell id="fLGgPZIdy_u78TRsAerz-8" value="Input 3 (a c)" style="rounded=0;whiteSpace=wrap;html=1;" vertex="1" parent="1">
          <mxGeometry x="85" y="460" width="80" height="30" as="geometry" />
        </mxCell>
        <mxCell id="fLGgPZIdy_u78TRsAerz-9" value="" style="endArrow=classic;html=1;rounded=0;startArrow=none;" edge="1" parent="1" source="fLGgPZIdy_u78TRsAerz-10">
          <mxGeometry width="50" height="50" relative="1" as="geometry">
            <mxPoint x="165" y="474.5" as="sourcePoint" />
            <mxPoint x="235" y="475" as="targetPoint" />
          </mxGeometry>
        </mxCell>
        <mxCell id="fLGgPZIdy_u78TRsAerz-10" value="map" style="text;html=1;strokeColor=none;fillColor=none;align=center;verticalAlign=middle;whiteSpace=wrap;rounded=0;" vertex="1" parent="1">
          <mxGeometry x="185" y="460" width="30" height="30" as="geometry" />
        </mxCell>
        <mxCell id="fLGgPZIdy_u78TRsAerz-11" value="" style="endArrow=none;html=1;rounded=0;exitX=1;exitY=0.5;exitDx=0;exitDy=0;" edge="1" parent="1" source="fLGgPZIdy_u78TRsAerz-8" target="fLGgPZIdy_u78TRsAerz-10">
          <mxGeometry width="50" height="50" relative="1" as="geometry">
            <mxPoint x="165" y="469.5" as="sourcePoint" />
            <mxPoint x="305" y="470" as="targetPoint" />
          </mxGeometry>
        </mxCell>
        <mxCell id="fLGgPZIdy_u78TRsAerz-16" value="" style="shape=table;html=1;whiteSpace=wrap;startSize=0;container=1;collapsible=0;childLayout=tableLayout;" vertex="1" parent="1">
          <mxGeometry x="235" y="370" width="180" height="120" as="geometry" />
        </mxCell>
        <mxCell id="fLGgPZIdy_u78TRsAerz-17" value="" style="shape=tableRow;horizontal=0;startSize=0;swimlaneHead=0;swimlaneBody=0;top=0;left=0;bottom=0;right=0;collapsible=0;dropTarget=0;fillColor=none;points=[[0,0.5],[1,0.5]];portConstraint=eastwest;" vertex="1" parent="fLGgPZIdy_u78TRsAerz-16">
          <mxGeometry width="180" height="40" as="geometry" />
        </mxCell>
        <mxCell id="fLGgPZIdy_u78TRsAerz-18" value="a, 1" style="shape=partialRectangle;html=1;whiteSpace=wrap;connectable=0;fillColor=none;top=0;left=0;bottom=0;right=0;overflow=hidden;" vertex="1" parent="fLGgPZIdy_u78TRsAerz-17">
          <mxGeometry width="60" height="40" as="geometry">
            <mxRectangle width="60" height="40" as="alternateBounds" />
          </mxGeometry>
        </mxCell>
        <mxCell id="fLGgPZIdy_u78TRsAerz-19" value="b, 1" style="shape=partialRectangle;html=1;whiteSpace=wrap;connectable=0;fillColor=none;top=0;left=0;bottom=0;right=0;overflow=hidden;" vertex="1" parent="fLGgPZIdy_u78TRsAerz-17">
          <mxGeometry x="60" width="60" height="40" as="geometry">
            <mxRectangle width="60" height="40" as="alternateBounds" />
          </mxGeometry>
        </mxCell>
        <mxCell id="fLGgPZIdy_u78TRsAerz-20" value="" style="shape=partialRectangle;html=1;whiteSpace=wrap;connectable=0;fillColor=none;top=0;left=0;bottom=0;right=0;overflow=hidden;" vertex="1" parent="fLGgPZIdy_u78TRsAerz-17">
          <mxGeometry x="120" width="60" height="40" as="geometry">
            <mxRectangle width="60" height="40" as="alternateBounds" />
          </mxGeometry>
        </mxCell>
        <mxCell id="fLGgPZIdy_u78TRsAerz-21" value="" style="shape=tableRow;horizontal=0;startSize=0;swimlaneHead=0;swimlaneBody=0;top=0;left=0;bottom=0;right=0;collapsible=0;dropTarget=0;fillColor=none;points=[[0,0.5],[1,0.5]];portConstraint=eastwest;" vertex="1" parent="fLGgPZIdy_u78TRsAerz-16">
          <mxGeometry y="40" width="180" height="40" as="geometry" />
        </mxCell>
        <mxCell id="fLGgPZIdy_u78TRsAerz-22" value="" style="shape=partialRectangle;html=1;whiteSpace=wrap;connectable=0;fillColor=none;top=0;left=0;bottom=0;right=0;overflow=hidden;" vertex="1" parent="fLGgPZIdy_u78TRsAerz-21">
          <mxGeometry width="60" height="40" as="geometry">
            <mxRectangle width="60" height="40" as="alternateBounds" />
          </mxGeometry>
        </mxCell>
        <mxCell id="fLGgPZIdy_u78TRsAerz-23" value="b, 1" style="shape=partialRectangle;html=1;whiteSpace=wrap;connectable=0;fillColor=none;top=0;left=0;bottom=0;right=0;overflow=hidden;" vertex="1" parent="fLGgPZIdy_u78TRsAerz-21">
          <mxGeometry x="60" width="60" height="40" as="geometry">
            <mxRectangle width="60" height="40" as="alternateBounds" />
          </mxGeometry>
        </mxCell>
        <mxCell id="fLGgPZIdy_u78TRsAerz-24" value="" style="shape=partialRectangle;html=1;whiteSpace=wrap;connectable=0;fillColor=none;top=0;left=0;bottom=0;right=0;overflow=hidden;" vertex="1" parent="fLGgPZIdy_u78TRsAerz-21">
          <mxGeometry x="120" width="60" height="40" as="geometry">
            <mxRectangle width="60" height="40" as="alternateBounds" />
          </mxGeometry>
        </mxCell>
        <mxCell id="fLGgPZIdy_u78TRsAerz-25" value="" style="shape=tableRow;horizontal=0;startSize=0;swimlaneHead=0;swimlaneBody=0;top=0;left=0;bottom=0;right=0;collapsible=0;dropTarget=0;fillColor=none;points=[[0,0.5],[1,0.5]];portConstraint=eastwest;" vertex="1" parent="fLGgPZIdy_u78TRsAerz-16">
          <mxGeometry y="80" width="180" height="40" as="geometry" />
        </mxCell>
        <mxCell id="fLGgPZIdy_u78TRsAerz-26" value="a, 1" style="shape=partialRectangle;html=1;whiteSpace=wrap;connectable=0;fillColor=none;top=0;left=0;bottom=0;right=0;overflow=hidden;" vertex="1" parent="fLGgPZIdy_u78TRsAerz-25">
          <mxGeometry width="60" height="40" as="geometry">
            <mxRectangle width="60" height="40" as="alternateBounds" />
          </mxGeometry>
        </mxCell>
        <mxCell id="fLGgPZIdy_u78TRsAerz-27" value="" style="shape=partialRectangle;html=1;whiteSpace=wrap;connectable=0;fillColor=none;top=0;left=0;bottom=0;right=0;overflow=hidden;" vertex="1" parent="fLGgPZIdy_u78TRsAerz-25">
          <mxGeometry x="60" width="60" height="40" as="geometry">
            <mxRectangle width="60" height="40" as="alternateBounds" />
          </mxGeometry>
        </mxCell>
        <mxCell id="fLGgPZIdy_u78TRsAerz-28" value="c, 1" style="shape=partialRectangle;html=1;whiteSpace=wrap;connectable=0;fillColor=none;top=0;left=0;bottom=0;right=0;overflow=hidden;pointerEvents=1;" vertex="1" parent="fLGgPZIdy_u78TRsAerz-25">
          <mxGeometry x="120" width="60" height="40" as="geometry">
            <mxRectangle width="60" height="40" as="alternateBounds" />
          </mxGeometry>
        </mxCell>
        <mxCell id="fLGgPZIdy_u78TRsAerz-34" value="" style="endArrow=classic;html=1;rounded=0;exitX=0.5;exitY=1;exitDx=0;exitDy=0;startArrow=none;" edge="1" parent="1" source="fLGgPZIdy_u78TRsAerz-37">
          <mxGeometry width="50" height="50" relative="1" as="geometry">
            <mxPoint x="324.5" y="490.00000000000006" as="sourcePoint" />
            <mxPoint x="324.52" y="567.3199999999999" as="targetPoint" />
            <Array as="points">
              <mxPoint x="324.52" y="567.3199999999999" />
            </Array>
          </mxGeometry>
        </mxCell>
        <mxCell id="fLGgPZIdy_u78TRsAerz-35" value="" style="endArrow=classic;html=1;rounded=0;exitX=0.5;exitY=1;exitDx=0;exitDy=0;startArrow=none;" edge="1" parent="1" source="fLGgPZIdy_u78TRsAerz-39">
          <mxGeometry width="50" height="50" relative="1" as="geometry">
            <mxPoint x="385" y="490.00000000000006" as="sourcePoint" />
            <mxPoint x="385.02" y="567.3199999999999" as="targetPoint" />
            <Array as="points">
              <mxPoint x="385.02" y="567.3199999999999" />
            </Array>
          </mxGeometry>
        </mxCell>
        <mxCell id="fLGgPZIdy_u78TRsAerz-37" value="reduce" style="text;html=1;strokeColor=none;fillColor=none;align=center;verticalAlign=middle;whiteSpace=wrap;rounded=0;" vertex="1" parent="1">
          <mxGeometry x="295" y="510" width="60" height="30" as="geometry" />
        </mxCell>
        <mxCell id="fLGgPZIdy_u78TRsAerz-38" value="" style="endArrow=none;html=1;rounded=0;exitX=0.161;exitY=1.067;exitDx=0;exitDy=0;exitPerimeter=0;" edge="1" parent="1" target="fLGgPZIdy_u78TRsAerz-37">
          <mxGeometry width="50" height="50" relative="1" as="geometry">
            <mxPoint x="324.5" y="490" as="sourcePoint" />
            <mxPoint x="324.52" y="567.3199999999999" as="targetPoint" />
            <Array as="points" />
          </mxGeometry>
        </mxCell>
        <mxCell id="fLGgPZIdy_u78TRsAerz-39" value="reduce" style="text;html=1;strokeColor=none;fillColor=none;align=center;verticalAlign=middle;whiteSpace=wrap;rounded=0;" vertex="1" parent="1">
          <mxGeometry x="355" y="510" width="60" height="30" as="geometry" />
        </mxCell>
        <mxCell id="fLGgPZIdy_u78TRsAerz-40" value="" style="endArrow=none;html=1;rounded=0;exitX=0.161;exitY=1.067;exitDx=0;exitDy=0;exitPerimeter=0;" edge="1" parent="1" target="fLGgPZIdy_u78TRsAerz-39">
          <mxGeometry width="50" height="50" relative="1" as="geometry">
            <mxPoint x="385" y="490" as="sourcePoint" />
            <mxPoint x="385.02" y="567.3199999999999" as="targetPoint" />
            <Array as="points" />
          </mxGeometry>
        </mxCell>
        <mxCell id="fLGgPZIdy_u78TRsAerz-44" value="" style="endArrow=classic;html=1;rounded=0;exitX=0.5;exitY=1;exitDx=0;exitDy=0;startArrow=none;" edge="1" parent="1" source="fLGgPZIdy_u78TRsAerz-45">
          <mxGeometry width="50" height="50" relative="1" as="geometry">
            <mxPoint x="264.5" y="490.00000000000006" as="sourcePoint" />
            <mxPoint x="264.52" y="567.3199999999999" as="targetPoint" />
            <Array as="points">
              <mxPoint x="264.52" y="567.3199999999999" />
            </Array>
          </mxGeometry>
        </mxCell>
        <mxCell id="fLGgPZIdy_u78TRsAerz-45" value="reduce" style="text;html=1;strokeColor=none;fillColor=none;align=center;verticalAlign=middle;whiteSpace=wrap;rounded=0;" vertex="1" parent="1">
          <mxGeometry x="235" y="510" width="60" height="30" as="geometry" />
        </mxCell>
        <mxCell id="fLGgPZIdy_u78TRsAerz-46" value="" style="endArrow=none;html=1;rounded=0;exitX=0.161;exitY=1.067;exitDx=0;exitDy=0;exitPerimeter=0;" edge="1" parent="1" target="fLGgPZIdy_u78TRsAerz-45">
          <mxGeometry width="50" height="50" relative="1" as="geometry">
            <mxPoint x="264.5" y="490" as="sourcePoint" />
            <mxPoint x="264.52" y="567.3199999999999" as="targetPoint" />
            <Array as="points" />
          </mxGeometry>
        </mxCell>
        <mxCell id="fLGgPZIdy_u78TRsAerz-48" value="Job" style="text;html=1;strokeColor=none;fillColor=none;align=center;verticalAlign=middle;whiteSpace=wrap;rounded=0;" vertex="1" parent="1">
          <mxGeometry x="410" y="340" width="60" height="30" as="geometry" />
        </mxCell>
        <mxCell id="fLGgPZIdy_u78TRsAerz-49" value="Task: each map and Reduce&lt;br&gt;&lt;br&gt;Data Shuffle: row to column" style="text;html=1;strokeColor=none;fillColor=none;align=center;verticalAlign=middle;whiteSpace=wrap;rounded=0;" vertex="1" parent="1">
          <mxGeometry x="60" y="560" width="165" height="50" as="geometry" />
        </mxCell>
        <mxCell id="fLGgPZIdy_u78TRsAerz-51" value="a, 2" style="shape=partialRectangle;html=1;whiteSpace=wrap;connectable=0;fillColor=none;top=0;left=0;bottom=0;right=0;overflow=hidden;" vertex="1" parent="1">
          <mxGeometry x="235" y="570" width="60" height="40" as="geometry">
            <mxRectangle width="60" height="40" as="alternateBounds" />
          </mxGeometry>
        </mxCell>
        <mxCell id="fLGgPZIdy_u78TRsAerz-52" value="b, 2" style="shape=partialRectangle;html=1;whiteSpace=wrap;connectable=0;fillColor=none;top=0;left=0;bottom=0;right=0;overflow=hidden;" vertex="1" parent="1">
          <mxGeometry x="295" y="570" width="60" height="40" as="geometry">
            <mxRectangle width="60" height="40" as="alternateBounds" />
          </mxGeometry>
        </mxCell>
        <mxCell id="fLGgPZIdy_u78TRsAerz-53" value="c, 1" style="shape=partialRectangle;html=1;whiteSpace=wrap;connectable=0;fillColor=none;top=0;left=0;bottom=0;right=0;overflow=hidden;" vertex="1" parent="1">
          <mxGeometry x="355" y="570" width="60" height="40" as="geometry">
            <mxRectangle width="60" height="40" as="alternateBounds" />
          </mxGeometry>
        </mxCell>
        <mxCell id="fLGgPZIdy_u78TRsAerz-58" value="" style="shape=image;verticalLabelPosition=bottom;labelBackgroundColor=default;verticalAlign=top;aspect=fixed;imageAspect=0;image=data:image/png,iVBORw0KGgoAAAANSUhEUgAAAVkAAAB5CAYAAACTKVJZAAAgAElEQVR4nO2de1hU1frHv1sgSwfNa2FiKoJoKRVg4i3JREsPoB6ivIDTScES07xQ5wh5ErUcOoZZWjb2C29ojVpggYEXSPEyeNcCuSQI6IAoMCIww7y/P2aAmWGAuTJo6/M8/DF71l77Xe9a+2XPWmu/X46ICAwGg8GwCB2sbQCDwWA8zLAgy2AwGBaEBVkGg8GwIA9YkK2D9OpRHMm918z3BHnpNWRkZOBigRTWnGyWZ0RjEBeKfcVyK1rRGjXI3T4H9hwHblA0MtqzqWah/YwPyDMQPWgQgvcVWNMKq6PIi8OsQfbgOA4cZ0V/kAQZv5xGsdz8o+KBCrJUcRob5wmRJ+eafikvRGr0HAzt5QIPDw+49RuKCR9sRWz0BiTk12iWLUlA6EtbcLWubexuv3TEwDnbUVkkQpC1TbE0bHy0SzoMeAM7sytBJEORaKpVbSlP/QhLd1+DzMz1PkBBtgrXfvwSu8fOhb9zpybf5eyOxLtXXsIuSTWICCQTY8OwP7Fp+c/4s0TLbfJa3C+U4r4FH2Vs3Zchm7ZguoOt5S7C0JP2Nz5g645l2dn4frqjBS/C0BuuF8a+FYCq9duRVmbe/64PTpCtEGOHoAzBAR7orv0gq8jHsR3VWPLhHHj06qg8ZtsbbjMXIMzv0TY3ldHOYOOD0Soc7JxfQZBnEr44mAuFGWtuCLJUchhr+cEIXvgF4rbOhwvHwX7EImw/fxnHomcrP78chZRi9Z9WNSg+uQtrFk2Dhz2nnFexHw3+xmNqcxuE2qs7sTA4GMH8z5Gan4mkmHkYUV9+0CQs2HgIudKW/nvUoSz9Z2zq/iomDuvS9GuuEx7vUwfpfa1JRW4Apm36GnPdOis/117Elkn9wPWZgdic5fCwU9nAceC4YZi1J0fLuQpUpH+CUfYcOG4IQhOKQNLsRvvtfbBkz2VIG5545ChJCodLQ53Nz8lScRJW8YMRHLYL4os/4IOpQ1TnDIHfRweQ1cQfBHnxcXy9+FUM4jhwnD0GTf0P9l7NQmr0AgQH87FgixjSFryoF4pr2D5tgMoWewyJTEWFhg3p2BYxU62/R+D1yF3IKNH6yV2Risghqrk2+znYnlv//W2kRY5V1T8WkWm3TbW4dSw2PgBUHMeaUX3AcRzsQxNQQhXITYoBf0QfcFw/eC/Zg6tqfUkliVji0vocpPXHh/ZYbmw/FcfjnYY22MPlnXgUN9wD+sQEQ2lm7aC+v3SuKRgwVuvh+sBrqjuSd6Qhu9UoK0XW9lC4cPZw4e9EVnULbSN1ikQUBEfyjjxERTI5VYo30EQnTwramE4S2X26IQojpxUpVN5wQjUViVMoRXydKhWqQ7JiOiGYSZM3X6AajcrzSRQ0hsZ7T6fFsWdIIlOeoKjMppSYt8iLH0c5tQrSzW1KjfAiB41rqyOnysv/R/yJb9P63YfoZGYJyZqpqaGdTgISt1hIHRkVicJoxvqvaI1fo/2Kyku0d9PBZuzOJ1HQeyQqauEiRSIK4jmR57yNlJJbTgoilf8CySvqBFWqFVVIjtBHfnwSJF5T+VpOlbnJFMP3IXe3iSQQV+q8hF6o+UNReYFiQ/2Jv+VkQx+pLCBZ0SGK9AuhmMTLVFL/nUxCVxJjaK5fFCUXVWtUq7idTOFu75KosFbrgndJLJhL4Sm3qLkeNy+WHh+qc2asIeGamTRlcSyJJdVEirt0Za+Q4nPu6ThBRkWi9yhIlN9yndYeH/dOk2DMwqZ9qCimxMUzKCr9jtYJhsQEdfT0h65+aXLc8LFaT12mkHwwi2JzdX/fSCHFh7gSAAIvjOIl8mZLNg2y/ddQerVC52eZWEBOQSIqauXyusvlkyjoefITXiHtW44UtyglfAatSLmlu0JFHsUFOtOYzZeo+aYoSCY5TwnCDRTx3ps03smR3ANWkjC9sOkNZVSQDSE4zyPh5bt6BgY9g6zDYoq/pVlGkR9HgRr23SWxIIDmxmU3aYuiUET8buPNEGTX04nrybTGL5Aikwt0BKFSSo0IbCYwyul2SgSNCU+m2xpf3qNM4WwaJThN6mFGUSiit6YLKbPZf6qWwJLjQ3UOnqe5wguNwaVF9AwqVh8fyj4cE3NOI0DW5cTSdH/9+7D12GHOIGvMWFVxO5He08tfcqrM/IW2CP5HWxL+aLHPm87J2jwCOxuu+c8a1EGadxSxa8Lg59EHHNcHHlPn4YOth1Gms7wrJo/sDzvtw1wPPOfdHz+fLYDOH9d1t1EgVmBg766wafaZnINtLzdMeWsxPv58F45k5+HoJy/ir8j38dWFimbP0p9HELj63+A/0xXNecMoOj0Fh+6ai2OcrR06qh+oK8CZn7pi8qh+0F5G4xxewCSfx0y341YswvzfRsKI97D05b5NroO6GziXcBCfTngCHTj1n9EcOM4WPSasxu8/nkOexq/YTnD2n4uxO75HYlH94lI5zu6KA816Bc52ZvVkK1h6fAAIDMfH/OHgmbNZVh8fneA8NRDPbhPh94YFoXKc2xePrnN09aGhMcECGDVWVXTpib7dC3Dp+p1WLmIDnsurCFm2BCFTXFvscxMWvgjVWXFYFLITEtdACBLzQFSEM3GRmDXaBTyd59SgVqZ77qJOJkfnR2x1BzCbHnD06IBcSTl0+YVKLyL5QonWvkcb8AZOwrx/dcLG367pDt4G0QEd7WzMG2D1vvSj6NyjDrVyXRNFctS2NB+kL/be+Pe+37C65kss/u6i2jxzvQ1d8YSLP4SZ95Wr87r+spfBXesu57p74a1F5fhs13lUASBJGr796UW8O9mxzXzZNuMDQEc72FpjgFh4fHC9x+Lt2ZnYcbQQBIDKxPjhp2Hgv9JXqw+NiQkWwMixCgCoKMWNMkcMe7qb+cwx/tTbOCH8AX0jPsWyGWPg0lP5v5XjOWLY0L54ROc5V7Fjnxh3tPtcloPEXTfwxuj+up9UuS7o49ITOXkS6HoNoe76Ibzz6WEUNBlLtai8I4UDr6N1gqO54PrgRV9AlHBZK/gRZNdSIUqpNv0anfrh6b6DMCHiE8y6vhaz16VoLlRwT2Hs64/jux/PocKge1b9abYc1xJ+Ru2SALzQSVePqC2SBochOu2WWV4YYOPD1PHRBcN9J6Nsw0+4WFuDgt9+wLlZ0zCyi3b4MCYmmA7JZdBYyjJ6rAKK0kL8cWcAHHt3bL0walCa9ScKWly0NynI2qJTF1tUVtWq3Qh1kOYm4XPBDuToPGcABv/1OfirdiMtqxRykqIg4xdsDluI7c8uxr9e6NrMtR6H2/jxwC+ncLVKt9cUuz9FxBcpyKtvMFUg7/A2fBr7FJa8NkgzePcYCHcHMY6cudnwBEPS6ziVsBVrt2WYvkJvdjrB+fXF8D27Eu9+8QsyCqQgeQmuJm3GolXHYP+CGYevbV9MiIhGWM0mBK9OVgu0dujj+z6WFHyM+Z8l4Epp/bCugzT/NBK2LIHPOwmQ6Oge5dNsFbbv2IpvfhiCd5p9iq3BXyd/wpexsdhX/jx8R/Y2W/Bj48MUONg5T8LbzyZhd3Iy9n9lhxDfwU2n/YyKCQbQpRee7lCI4rKGXoG8+HdsWvkp9mgUNHas1uLGueM44TMGzz/VtHWa3IE4+nUMGDwEQ303QixtYTtC/eSsQvIrLXbmKVfLXFdRanmdajIfxPPZQpdrFMrJa4B4/rGUU6dawZs4jgKWryaBYDWtCJpI7r5raP/3S6k/QODNptic+lU61ULQ9Rt0XvQ/es/XnXhwpvFBH9LmpGutLxbcO0FRz3rrWM0kkmf+SGt+PEGndkRSgLuDsg1wIM+5n1NiTrnOye/KK3spfIpqdRAgOPlQSNROStdYdSyl1IgxjWXU/3j+FHNec69DXU4s+fN0lAUIcCSfhtXVOipPXUWuDXU1+qkudzfNdNLqh/o+qsymw8JIChrvTHDypqCI7ym9KItEQVOMXNioppzY2cQDCOoLBzUXaLOPo8ru/uQfm0UNVsgKKV24Us3PPHLyDqGo749QbmULy5K3kync9Vnii643v3CouEaxfo4E+NCa9Ntm23lgufGh1Y9a/T0xJkNjwY/qsijWv38z46PxPms/40MdBd0TR5MXeOTa3KIRGRgTNMZZS/6o5x7lxC0gV88gWrl+HUWE+ZOnVxjF/rqFZgPE81pHJ9T8YfBYVeRS3JteLY/RBm5S4ntuynq7LaXE2/ruLjAGWQllpiXS/viUVrbG6LHa3iL3KFM4kxxC4+lWWy5Kt3vyzXQTWRbF7WQKn/w/Et9rvvMURSKaywN144uokPWxmbDC+NA7JhiDnCqvn6bE/Qma28RMRkE15zfSKNeVlNJCwFQvL5NcoKT9Byjp/K0W22j6O5+2PeEyZhJcTK6oNTrB5Y2l+GDPesRdHIdFbjpeSvg7UnUTudl94NjLUjNe5qAK1w7sQcm8lc3MxQKAApV/iJGEmYj+YDL6PNCTpO0Ia4wPi8YEG/D6eWJSPzNXSzdw6OskuAk2w7t783uYGuFg22s4fPyHt1rywXqxvpMb3vrifWTa6zMp/bBDkJech+izNfht2of4wbGdBVkqR9bRY7h8Rw5QAQ5tKMFTyy/ieN7jGD2gi4651jrck3WB/9qFmNYkNwXDcNr5+Gh3dIHLzDVwH6m9Y8IMmOthu6XH6tpMIflpzFWOoYjUUstf+qFDc46Y5/4mrRSeoCJZO/xtrXO+zZEmC/9o4YUShmk8QOPjbwRHxDS+GAwGw1I8OFm4GAwG4wGEBVkGg8GwICzIMhgMhgVhQZbBYDAsCAuyDAaDYUHaQZCVImvvtzioLWZnclkGg8GwPlYPsiQ5ig1rr+MxXuvvRRhSVjd/NwlsNdRkZQZFZ5gntR+DwWgVKwfZKlxL2Iebi97E2FZfZTOkbHP8jSSwtengjDn7r6FIFGJtSx4AipAQOhtbrlZZ2xDGQ4BVX6ulsnRs29QLocm60qYZX5bBMI061N6/C+l9c2qWMv6uWPFJVobiowdwfOY/9XgyNaQso22og7TgMk6dPIWMrFI2/cBgNIP1gmzVeezaACyZ+RxaTQdiSFlDsboEtgHSwgZA0svYG9lot/2IeYhJykalzuprUHzye4Q3yE7bY9DUD7DtZJGO4EmQFx/DRv44OPQbhpFeI+ExeACGvrEeu4XrEJ1WAgBQ5G7HNHsOHOeN6Iz6NNf3cGXLP5Vz4g3H5Sg5HA1+MB8LN2/HVv4L4Lg+GLFgO85npiD6jefAcf3w8ke/aUlK69s3MhQnrQM/mI+wuJO4uPc/mDpI1U+DZuCjA3+qqQnU29cPM2IPYrmHvZo2lD0GzYpDnrEPt3QDSavmIzj4A8SJT2PvB/6N0t1+/8WBrHItFQiCvPgktjdoZXFKv/C/QGpxY/uo5DDW8oMRvPALxG2dDxeOg/2IRdh+/jKORc9Wfn45CinFNVp1GyiXzTAe66RMqKVC0bvkFnGsGYlvY8vqSbuSwNZfWlhfFOUnSeDjR+FxZ1VtUpBMcpbiwgPIe7wbOQnEavkvq6kwfgWNChRQ/GWJ6rhKTjpoMvHjsjTUhRVlabRm4hQNWXdSlFPu4c0U4u6qpTbaXC5T7eMqNWDeq0qlXEUZiQX+5OTKp42nb5JMlkei0Mm0IqWk3goD+0ZZP89pHM2LSVYlbFaQTJJGAl9fikq/3Yp95iKfREGu5OQZQjEp2apcqNUkObGBfL3WUXqlWsJpUpCsKIOSUs5SfkOCaWVZv8layayLRBQER/KOPERFMjlVijfQRCdPCtqYThLZfbohCiOnFSmq+8d4uWyGcVgnyNZeIaE/n4SZuvToTSirL+1KAlt/aWH9uEeZQj7565Jer71CQr/+GkFWIfmVFo+K0JmoWFF2lCJHLVT7p1FNObFv666bauh6XBiFxheqHTMsyPaPSqdqnZ8rSSyYohbADe0bZX0OC7QTvtdSfhxf659OS3abSj6JgsbQgvgbmnYr8igu8FX9ricTk8ApRDP5fZGIgvqvofRqhc7PmnLcJshlM4zCCtMFdShLi8N3g2fBv9W8oYaUNZB2I4Gtv7SwXijy8fsewnRvp6YLhHZO8J4xWr0wKi+lIvG11zBax1w31+05vPpaHg6dLVEdkeB88j1M0iXrjkfQL3AjNk/tY7TpNh3tNLS2tD83YKTkc6eBDuiu4V8OtnZtnWe1KwY6aMnKczaw69j0ViRpDo7ErsMiPw/YcxzsPfww/4OvcVSXtrbNI7Cz4Zr/XI8pctkMo2j7IKvIxcEvLsEvwENrwJtY1lAeVglskqO26jF0flRXeLLBo53bTJjZcpgi+fygUH0VOxYtRazEGQGCRNwhQuWZnYiY9RIGmdKFfwfftTPaOMgSqs79jG+6zcHMZpVpjSlrBO1CArse/aSF9cKmL56bLEHaxdKmctpUiotpp9UOdID9sHGY/MsvOF7W9NpUcRWHEwfA54VeqiPdMdirA5JO/gVZk9IASIqCP280/YfVpFwdZDUmbI8yQfL5wUCBihM7sLrvUmxa9k+Mdemp/KXF8eA4zBV9TXn4fuh91/5o2yBLBUj88hT83p3QuoaTIWVNwaoS2IBB0sJ60RXubwag/LON+Cm3ojHQUgVyD27FVwdLNW3t5Y3lH9Yg4p0NSLhSotpNoJRx/mz+KmQvXIR/9KmfHOiMoYGh8IxbgRXbxShp8FUNSq/+BuGSN/CvuGzcb6i9M3o9DeQWq62cy4uQvuljROxpLGU4xveNfnSDk/ujSDtyvrGNJEX+qXh8vTYWGSb3UWtwsO1kjy6VVahRawNJs5H0+QZ8Y5K2tqV9x2hC203/KtUgx/g1twBkbFlDaGcS2ERkiLSwIe2UnBFSqNco8g2LoPWC1bQ8YBxNjDxIZ3bP0yEnXU1F6f9HKxoksHnkNCWchOmFOlU4FZV/ULzgLfJskBRyIPeAlSQ8nK21cKeg2pw44ruOoaCV62h9xLvk6+lNobH76dvZTgSeD0WduEWSxBXkrLqua8QxKq/fbdAgo15JYsF4I/tGS5LFP5Zy6pRtzo2bR04a11Vv4yXaE+6n+h4EOJN3yBqKbcYnrVJ+jCJceU3HWF02xc18tqksk6yAkiP9yDPgfYoSrKeoFUE03j2AovYLaUX/xjrkkl9psbOWRHiRiILUJLVlYgE5abRdX98xzEHbyc+QBIc/XIhDPpuw7uXeLc9PGlK2nUJlKfhw1kUEiBbDvcWpAoK85BIOH88DBnjhZbfe5nsNT16KrIyLyCrh4ODmiRcceVbxJUmv4/TxCyixc4TbiOFw5LEXSvSjBqVZZ5FxtQx2Ds4Y7u6MnrYP4t3w96btgqwiH4e/y8SAoFcwQOcqu5Fl2yVVyNq2GJ8+vhLfTu/3QP6TYDAY5oEJKZoLbQnsVUfRe/m/4DN2XDMS2AwG4+8AC7LmovYitvxjKhYcKlA76IjJwkNIeMtV935PBoPx0MOCLIPBYFgQqyftZjAYjIcZFmQZDAbDgrAgy2AwGBaEBVkGg8GwICzIMhgMhgVhQZbBYDAsSDsIslJk7f0WB/P1kb0wpCyDwWBYH6sHWZIcxYa11/EYr/U39g0pax1qkLdnvkq7iQPHhWJf8d9AYlBNJ21QdAYTVWQw1LBykK3CtYR9uLnoTT1UaA0pay06YkDgN8gmAlE+REGPWtugtqGDM+bsv4YiUYi1LWn/lCQg9KUtuPrQKg/UoSRhCV7achnWbWJ7sQPmS/hkDFSWjm2beiE0ebAOORPjyzIY7RZ5Le4XSnH/oX3PkiCvvY9CaU3TpPF/Szus+iQrQ/HRAzg+8596PJkaUpbx4FMHacFlnDp5ChlZpWz6wUBIWoCLp07iZMY1lMqtHWIeJAjy0mvIOHUSJy8UtK7woXe11uLeaRKMWahDPtvEss0iU0sODQKepZlx2VRHRIqin2lBfeJj8Mh5wc9UVJ98WlZI6bFrKczXXZnsGyCe59sUc+xGK8mb80kU9J6mqmg9dVkU69+fAKgppSqo5vIW8lElwtZUUFWQrOgECVe+Se71ibJ5nhQQsZPEkpbkmyspMzaEnMEj57k7KPO+eRKgKyov0Z6IRlt4nm/T54l/UOaPITqUXw1JCK4gWdFRipk7qsHXAI+cAz+lXd+uJUGqhIiI6nJiyZ8HAsarKbxK6fLmGarz6o/LSJIioLlBc+ndr2Lpm7nPE+BAnqGxdO7PZBIEuhEapLQVajbo6WtFASV+NI+CgsJp95lTakm+eeTku4r2Z95tTNiukRhe+69xLJqE7AYdi3lbLZk6CM6zSLDra4oUpFKZEf2iKEqkj+YGUdDCnXTmwl4KbyjvSr6R+ymzIcG35vht8uc0j+Jytceq/r62rB0q3wlmqcUHEG/8e7RBsIa2iMualjcAKwXZWioUvUtuWtnoTS+rB80FbEUxJS6eQVHpdzSPy4pInHSExPmVqhtGQTJJGgn8ZtHmy9IWLtRCkFVWTEUiXUFJ+7iCZEWHKNIvhGISL1NJfTCQSehKYgzN9Yui5KLmAm0hxYeoBiMvjOIlpme8V5SfJIGPH4XHnSWJTKG0T3KW4sIDyHu8m1Z7qqkwfgWNChRQ/GWJ6ricKnOTKSZoMvHjsjSkxRVlabRm4hRaHHtGVTcRKcop9/BmCnF3VZMEJzJUbhy8V5XS74oyEgv8ycmVTxtP3ySZLI9EoZNpRUoJGefrfBIFuZKTZwjFpNQrQ1ST5MQG8vVaR+mVWqGzSERB6qoc5kJRQifWTCfvxbFqAUpOlbmHaXPIKEKDJLjSPkP6hYpEFMRzIs95Gyklt1x5H8iK6YQgkLyiTpBmDzQ3rpsYbLivLWIHEVEdlaeuIrfAL+m0hu9+pagpz2uNO8OxTpCtvUJCfz4JM++Zt6xe3KNM4WwaE3OOatSO1uXE0nR/feVuKkksmNKK880VZEspNSKQwlNu6ZCxkdPtlAgaE55Mt3WaLafKzF9oi+B/tCXhDy1pGGO4R5lCPvkLr1CT3xS1V0jo11+jPQrJr7R4VASl6JDUUZQdpchR6v/sqikn9m3ddVMNXY8Lo9D4QrVjhgXZ/lHpVK3zs3pfGuPrfBIFjaEF8Tc0z1HkUVzgq03ts1CQbWn8Kq7H0czQeJLUfzaoX1Q2Oyym+FuaRivy4yiwSVv0DW5G+Noidqiul7iU+ofupxsy9QvKSJK+nxIytceYYVhhTrYOZWlx+G7wLPg7dzJjWX3pBOepgXh2mwi/Nyi0luPcvnh0nfMKnLWVGKgCeUdisWbRNHjYc+DsPTB1/kpsPXrTTPa0Qt0NnEs4iE8nPIEODVvD6v9s0WPCavz+4znk6VxCtQHP5VWELFuCkCmu4JmaOVyRj9/3EKZ7OzVdfLRzgveM0eqFUXkpFYmvvYbROubRuW7P4dXX8nDobInqiATnk+9h0sj+OhY2H0G/wI3YPLWP0abbdLTTyOmr/RmACb7uioEOXTUTs3M2sOvYVreXHLfOp0MyaQScdCiJcP0CsXPzVCg1hw3tFxWdnoJDd811cs7WDh2NNdlYX5vbDgCADbpPeB+7PTOwZKQzPKbOQnBoONZu2YdLXUZjkospGuzWWPhS5OLgF5fgF+CB7q3d9IaUNQCu91i8PTsTO44WKidfysT44adh4L/SV0vBQIqsHf9GSKwErgGfIPGOAlR5CnERszB6kL35DGqJDl3xhIs/hJn3QcpfHk3/spfBvS32iZActVWPofOjuhYfbfBoZ9MGo9VpT75+2Glvvrbtg5FvrcZecTbECTsgjPoXJjhX4+iHsxC2L8+kxdc2DrKEqnM/45tuczDzha5mLGsoXTDcdzLKNvyEi7U1KPjtB5ybNQ0ju2i5o+I0hKt7ImLTUswYO1glYmcDnuMQDO3b2cw21UOQy2obP3JPYezrj+O7H8+hwqjVzhqUZv2JAqkZdgva9MVzkyVIu1jadFsMleJi2mm1Ax1gP2wcJv/yC46XNb02VVzF4cQB8Hmhl+pIdwz26oCkk39BpuvaJEXBnzdaX/GlOshqjJTsNtnX1sIGPQa7gZd0GjkyXYbXQVqQrRoDhvaLhWhPvlb8hQP/+QbiBql3DrY9XfDihDn4z4fjkbj3NIpNsLFtgywVIPHLU/B7dwL6tPZkakhZg+Fg5zwJbz+bhN3Jydj/lR1CfHXsv7V9DF263EeV+k1LFchN2gLBN1km2mCDLr2eRIfcYpQ1dGANitO3YmXED2rl7NDH930sKfgY8z9LwJXS+leK6yDNP42ELUvg804CJDoHwR2Io1/HgMFDMNR3o9ogMpaucH8zAOWfbcRPuRWNgZYqkHtwK746WKpRmuvljeUf1iDinQ1IuFKiehqogzQ3CZ/NX4XshYvwjz71Xu+MoYGh8IxbgRXbxShp2HpUg9Krv0G45A38Ky4b9xtq74xeTwO5xeWNdsiLkL7pY0TsaSxlGKb4Wk96DIS7gxhHztxseDoi6XWcStiKtdsyIDWqUg6PDJ2BSM+DCF2xAxkl9XYT5KVXcEi4HL7/2os81eZcw/rFUGzQw+kZOKSl4UyJlv++/gzbMu6ojlna1/raAUBxG9l7tuCLbUeQ1/AwQpCXnMeBA6fhMsoZPUyJQSbN6BqEgmrOb6QxfvosLhlS1nh77omjyQs8cm124aiaipJX00TPQFoetZ4EUcspaPwo8o3aSd+v8FJu82jQsm9l6wgcyWfzBY3FNqrNoji+F3kGfUjr10dQmO8o8goV0q/f8glwIK+o3xt3VMgKKV24kgLcHRq33HiHUNT3Ryi3srldAzcp8T03ZfluSylRx0KH4VST5IyQQr1GkW9YBK0XrKblAeNoYuRBOrN7nvJarqsotbyuobz+W7iIFJV/ULzgLbVtSA7kHrCShIeztRbuFFSbE0d81zEUtHIdrY94l3w9vSk0dj99O9uJwPOhqBO31Lbt8cg14hiV1+82aOiPShILxhPQn/xjs5TbqPL4EG0AABPMSURBVPT1dfkxinCt3/qndn5dNsXNfFZ1fAxFpJaq2S2nyivqW5BAcPKhkKidlN7sLhE9UdylzHgBzfV0aKib5/4mrRTqGiP69Ity1d213k7ebIrNUdpYl7ubZjrxdPS30o4re/5NU5x4mv6LTVfbKqdCL19b2I66PIr/OJq+37Veh+9ONLXZQNpO44skOPzhQhzy2YR1L/duWb3VkLIWhyAvzcLJjEzctXsSLsPd4NLTtGl2zeqlyD99AmdL7ODo5okXHHlmbC9BXnIJh4/nAQO88LJbb/O94icvRVbGRWSVcHAwu936Q9LrOH38AkrsHOE2YjgceexlFUb7ou2CrCIfh7/LxICgVzBAxwqo0WUZDAajHcPUahkMBsOCWD3VIYPBYDzMsCDLYDAYFoQFWQaDwbAgLMgyGAyGBWFBlsFgMCwIC7IMBoNhQViQZTAYDAvCgiyDwWBYECsF2RoUp34B/og+ajkkh2DG9kyrK0u2RxS52zHNngPHeSM6w7gUIg8qD1Lb5RnRGPQwysArcrBn1rDGezV4H4qtbdMDhFWCrCL/AJZ9KMEbP+Wp5Y/8A6I5g5smUmagw8A52F+ZD1GQpdIrtl/+zm1vN3RwQuDOS8r7tEiEIGvb84BhhfTDctwSH8GpafPwvYMZE60wGFbG1n0ZstlL6gwtWI739gBJUXDpKgqrbNF90DPmzfLFYDCsShtOF9Qgd/sc2HN26DPja+Qs94Bdw3zsAEzbfg2aKaUJ8uJ0bAv3x6D6coP8Eb4tHcXaWvIVx7FmlHJ+1z40ASVUgdykGNWcbz94L9mDq0YpA6hsiJip1PfiOHD2I/B65C61xMiabSw+uatRD4zjwNmPBn/jsaY215dP/QL8F13Qz+1FeHm5Y3CvF/FG9PcQfvQl0u7oyFx/9xL2flDvkz7weGMtDmSpJa7WGzlKksLhwnHgOHsMiUxFRcN3ClSk/RdDVN+5vBOvlhnegH5BGdLXTII9x4GzX4SEklpIcw8hhj8a9hwHe+8V2HNV3fY6SK/+iMjXRyjP4fpgBD8GSbnGtM+UNhp7DQ5cs3OyMhQnrQM/mI+wuJO4uPc/mDrIXuW/GfjowJ+tqz7odf1hmLUnBwoAVByPd1xU19BoI0FefBLb14TBz6N+XaQPRvC/QGqxrnGtH7rnz+/hypZ/qvpTe17d0PsLAKTI2h4KF84eLvydyKp+AH46mJSN1ij0UZFUkKwwnhaPmk2C+EsNcsGKymxKiXmLvPhxlKMrmXeRiIJmrCHhmpk0pV4aWXGXruwVUnyOoWq3xshDV1OROIVSxNcbE0zLiumEYCZN1k7YTXIqO7GeJnovpVjxzUaF18psOrx5AbkjREvptlF6euOJ+sTK1VR0bD35+myk8/eMSSx8nzKFfArRUIFV80B+HAWO2UxXGvI9G9kvlE+ioLm0Xvgx+U1ZrmqvnCqv7KdN8dkqdVo5lZ/ZQD4TP6S487ca2ic5H0fhfhNp/PMTdSjTWqKNpqCfQjHPaRzNi0lWJaVWScz7+lJU+m3jL22Q1L2CZEUZlJRylvIbEmMrZcz9Jm+hyzUtjKUiEQVpyItro6+KsLFS9+aXubc07TPIKooocfF03XLBCgmlRvoTX3S96XdFIgrC8zRXeMEM8temSHFrIhMLyEl7YNZlUez0ZqTOFbkUN3O51gDKJ1GQN4WnSHRITwfS5ivGSKYrSJr6ET2rksdWSH6lxc7jVJn8ld+5RqSStKG4kf1C+SQKcibnuf9Hl5tTcWhW+l1BtZlC8uONNzLIGthGk9AvyDosiKdbGk6qpfw4vp7y1c1hBql7mZgETtr/3LUwW5A19v4yt8y95Wmf+2Qr/8DhRHf4j+7VNNs+1xMjXvVE6qGLKNV1bmA4PuYPN13+2ijJ4jpI844ituFnWB94TJ2HD7YeRpl2/bcuIVkyAiOddEidcwMQuHM9pvbS3mvRCT27PqZDeloK6X1j9Ls4dBo0HB6/X8V1hVIqWqQoxA8JF1CBGhRey4HbM45osNCUfsErWP3xTDzTjHKBIu8k9pA3vJtIv3Owcx6HGRMeNaJ9RrSxDeg00EFLfZmDrd0jptZqkNQ9SXNwJHYdFvl5KKduPPww/4OvcbTJQLUQRsuvm1nmvg1on0HWFDrawdYcjjdYsphQnRWHRSE7IXENhCAxD0RFOBMXiVmjXdBexbK53i54sToTeXdLIE66iDc/+Qi+omSIK+4g72IdRrnqCKhG8QjsWugYkteiqmtnPKqrCNcRnbsav7mv7dpoXfSWuq++ih2LliJW4owAQSLuEKHyzE5EzHoJg9pqoLY3SXAL0j6DrP0QvDw5AweOl+iQnr6Dc4fPYpzPcPS0pA0GSxbfxgnhD+gb8SmWzRjTsEOA4zli2NC+aPKc0mMQvHincDKnSmdtJL2BPwukRi74GIDNk3AZUYjMi+lIEg3HJJ9JmDTjIpJOXkDmib4Y7Kj2BGnBfrHp74bJV07hoi6Z6rKrSPvtnhG11lduQBsfaPSRuleg4sQOrO67FJuW/RNjXXoqtxhxPDgOc0VfUx+om0Nbqt0kSXAzyty3Ae0zyHJPYsJyPmoiluKzhMsoVa1akzQbSZ+9h/ezA7DyH44WfvowVLLYFp262KKyqlZztTw3CZ8LdiBHu/pHnkFg5FDEhUZie8atBnloyEtw9dBWLPENQ1xeW7zhZI8Bzz6ChOivsH/GK/Do0hMek4Zj/8ZNSOgzDC7d1J4gLdkvndzw5vIqfPZpPHLVbh6SXsPBmG9wsKMpvW1AGx9o9JG652DbyR5dKqtQoxbcSJqNpM834JsmA9VQ9JVqN1YS3Nwy921A203/llJqxJhm5LK1ZZOJlKuPJ0i4wo+cGqST/WhFE4leLblgLRnuiTEZZMySUAN6S3GrVksnjqOA5atJIFhNK4ImkrvvGtr//VLqryVlrEROlZkJJJg7ingNcseeFLBSSIdzyxsXBJqTnm7uuIHIz8fQ83Cj9xJvqq6XQiscQP1Vi0Wa6Nsv2vZp/vEm6tgRIbtJZ4QLycvTn8Ii1pEg6n0K8PSjyOQ02h3kpCbrbek26k9dTiz56yUDrzn+G6Xkqyk3bp7Kl8a3rxE9pO5lBZQc6UeeAe9TlGA9Ra0IovHuARS1X0gr+muPJSld3jyjcXxq//Fm0ObLUo3rty7VrraLwmCpe0vI3FsWJqRobuSlyDqZgat37eDgMhzu9T/H2jPVeUhLzMcTr4yBC88GwD3kpaXiRt9xGDugrV9nJchLryHjYjZK4GA+me921cb2QA1Ks84i42oZ7BycMdzdGT3NspihxHJS7RaUubcQLMgyGAyGBWmfc7IMBoPxkMCCLIPBYFgQFmQZDAbDgrAgy2AwGBaEBVkGg8GwICzIMhgMhgVhQZbBYDAsCAuyDAaDYUFYkGUwGAwL0t7fSGtHSJER/Q94XApD0ffT4WBtcxhNUVzD9hk+CDrwF5wEYvy5zL3pAJdnINo1EJfWH8H30x2tYaWJ1EF6NQ1nHvWE98D2+TqwouAwNu85i/t4HC8EvAQk/ISz9wEbV1+8O9WlaUY6qF7DPZqCdIxD2NRBOlWrDa2XSs/h1+ze8Bn5lFUD3QP/JNuoK9Tc3yAE7ytoI2vqUJKwBC9tuYzWk7DVa57psrkfJm25iNo2seMhooMz5uy/hiJRSBtetG19TRWnsXGeEHny9psBlyqzELd8OZYvP4rCujqUpH2J5cv/i+2597WCpxwlJ7ch/PUR6DF+KYSxW7Dpz+b13PSvV0WHMqSGRmJ3M+lE24oHPsh2GDgH+yvzIQqaAoG4UivxrwxFoqlmuhIP7suOgFp8iiXIa++jUFqjRx7Yjhg4ZzsqG+wMgZNADBkRiPKRFDpc5398/TDEjr8Ztu5Ylp1txqfYtvR1Fa79+CV2j50L/yYKEu0Hm269MRAAHPrhqZ7d0evpHgCewLC+3bWCoQ269R+J6VG/QCKOw3/feMFM9SrhunvhrUU1WL81HWVWvBEe+CDLYPxtqBBjh6AMwQEeWvI17YxeT2OYE4Ann0SPzjw8OaAvAEcMe7qbVkEOtk8OxYv6ZqrTu956OsF58nR4xv4fDuYZr8JrKg9lkCXpNfyeUQw5bNDt+Tcx7/nuAOQoORwNfjAfCzdvx1b+C0oZ5AXbcT4zBdFvPAeO64eXP/pNU9qaipG0ZETjT/ngfShuekXUXvkak+x1yZ1z4AbNxx4TOpmKk7CKH4zgsF0QX/wBH0wdoqp7CPw+OoCshiTXxthhiCyzAhXpn2CUvfLaoQlFymTPMfMwwp4DZ++DJXsuQ0rG+NpweWiSXsbeyMby9iPmISYpG5U6nlqoJBFLGuSxW5lCkhfh5PZG/av6ujemFjYmV7e4r7WpQ1n6z9jU/VVMHNZF3dg2kD03EJsecPToDwzri942j6Bb7ycBPIUnutu1eqq56+UcPDB10iXsOJqH1tJ7053fsfblfuDsX8L7iTfM98vEirlszYimEqZOdVjlN1QkCiHwXqXI5AKSKcpILPAnJ1c+bTx9k2SyPBKFTqYVKSW6L9OqUqc+cudGnlckoiCeE3nO20gp9Qm9ZcV0QhBIXlEnSFMbVF87jJVlllGRKIxmrP+K1vhNp8WxZ0giU5Ci8hLt3XRQJQtuiK8Nt0NRfpIEPn4UHneWJDKFsg7JWYoLDyDv8W4ttF1GRaL3KEiU37xbZEUkTjpC4vxKVeJ0lWy33yytBNVt4et6blNqhBc5rEjRkdS7LWXP9aGUUiPG0fMx50lOqoTprqsotbyllPL6+NGYeu9TpjCA4BdLua0o2yoTuyuTkev2s3E8RE+yf2K5h/JJxc5jeVO5FzX6fxCJf0/oC1vOHn0GPoG62fMx3/MJ2Nr2xNNONrh5934LZ1sR+38gMmoBXh7QRSnxYvskRgZOQ7/vjiNT3trJuihD+mYhahZ9jLBJzzQmbbbthaGT3sVni2qwKub3ZuazaiHaeg5PrtmG/83xQC9bDhzvWQS8+xoGqimj6udrQ+2owrUfv8bxwLVYHfg8etlyADjY9noegatXYXbXcmOc0YitA9x9xsPdkaeS0uFg2+s5eI+5i/RMY+VcTfE1AKpAUVYpnAb0RtM9BR3xlHM/HL+QjxrUP7W/hMi02wAIVX/9gQvez+DpNlPZ6YGxHx/D2UVusAFg47YIZ//4CGO7mBpujKnXDj2f6odul29Bh3ycBjbDg7Fj/1cQxOzGvsWj0aXl4nrzEAVZ14aFL5lYAKcWStp0tNOYKNf+3G7p9BQcumvOXnG2duhobH1GyzIDwCMIXP1v8J/p2qKml16+NtQORT5+30OY7u2EJj8U7ZzgPWO0QW5oAlUg70gs1iyapvxZb++BqfNXYuvRm8bXaZKvAdTdRoFYgYG9u+oYq+1P9rz9YIMuPZ9E95xsXC9p5UmE64qh/guwbNEbGOlg9F3VhIcoyDZi68ZH8hofPAkA1Vk4uOsUStgye1NMkmXugI52NuYRszTUDpKjtuoxdH5U179GGzza2RRdaymydvwbIbESuAZ8gsQ7ClDlKcRFzMLoQfbGV2uqBLZNDzh6dECupFznVrG/i+y54dShovQmypwG4ele1tkt+1AGWdj2QP++qp96dy5jb2Qa8v9WG0b1xCRZZivaYdMXz02WIO1iqQ5p8lJcTDttvC0VpyFc3RMRm5ZixtjBqp/1NuA5DsHQviZs/jfV11wX9HHpiZw8CXSKoxsse06ovboTC4ODERwchui0Ww/pdj8ZSgvzccfDEb1b+bnauOd+GBYkFJrNHw9nkLUaNujh9Awc0tJwpkRL4vjrz7At4047s8NYWWZzY6gdXeH+ZgDKP9uIn3IrGm8GqkDuwa346mCp8abYPoYuXe6jqkZtLZoqkJu0BYJvsnSc0Fa+fhxu48cDv5zC1SpdhQyVPa/BXyd/wpexsdhX/jx8R/Z+OJ90qRjnkv+Aj48bnmqxgTW4fjwJB6QAb+J8hL7cx3z+MNMCmtVoWZK5XrJaQGKZjCSJK8hZQ3pZtQLeIN1cSWLBeDVJ5GrKiZ1tgBwyESnu0pU9/6YpTvVS2CqJ49h0LcnslupWl5LWkjxXkxWvy91NM+uvo73KqrcdZIAscwuy7jx/ijlfvx5rjK8NsUPpP8kZIYV6jSLfsAhaL1hNywPG0cTIg3Rm9zxNn9RlUax//2bHB89nC12uUTTUW5S8miZ6BtLyqPUkiFpOQeNHkW/UTvp+hZeWnLclfa2Deyco6llvikq/o/Nrg2TPFdco1s+RAB9ak36bWll4txAt3QP9yU94hWpNvILiehy96bCARIWt1KS4QfGhzxIwisJTbpnVH0ytlvFgIy9FVsZFZJVwcHDzxAsNOwJMgSAvzcLJjEzctXsSLsPd4NLTfAshxlOFrG3zMP7Mmzj/1VT01m6oAbLnVLwPb7nMwE8BIlwWTkefh/IxVooLG2fhjaJFOL5uQssvcFQcRrjrBHw1QoiMH/hwsTOfQ1iQZTAeJKrOYuO09cD6b7DIzdhNRgpUHF4JV7/riMrYirdcHs59B1Qcj3dnHMVrok8w1aGlFyEI99L+iyHjTmGROA7L3Lua1Q6WhYvBeJDo5Ia3vngfmfamPFnX4Z6sC/zXLsS0dpwDwWTsXTHzCw+MbDHAAgCBOvXFP6NfRvAL5g2wAHuSZTAYDIvCdhcwGAyGBWFBlsFgMCwIC7IMBoNhQViQZTAYDAvCgiyDwWBYEBZkGQwGw4KwIMtgMBgWhAVZBoPBsCD/D9/45dRKQB2tAAAAAElFTkSuQmCC;" vertex="1" parent="1">
          <mxGeometry x="90.94999999999999" y="245" width="228.1" height="80" as="geometry" />
        </mxCell>
        <mxCell id="fLGgPZIdy_u78TRsAerz-59" value="" style="shape=image;verticalLabelPosition=bottom;labelBackgroundColor=default;verticalAlign=top;aspect=fixed;imageAspect=0;image=data:image/png,iVBORw0KGgoAAAANSUhEUgAAAaAAAACnCAYAAABXRIhVAAAgAElEQVR4nOyde1hUVffHv0cgi2YwTUxI/GVcxCsloIKXVyTR0hdQI8oLiqWgpmleyBLyFdR08DUvKVrYK97wMl4Ce8HwEqigDt61QC6vEIMBojCjAnNZvz8YYBgGGK6Duj/PM88D56yzz9p7r33WOXuvcxZHRAQGg8FgMFqZdvpWgMFgMBgvJswBMRgMBkMvMAfEYDAYDL3AHBCDwWAw9IKeHVApMnZPBZ/jwFmFIlmuX210RwHpnbM4k/G4lv0EecFdJCcn40a2FHqN8pAnI9TKCtOOZOtTi3p4Vu2AwaiPUmQemAUrjgPHceA4fxzJfQYMnPKQ/Osl5Mpb9uqlZwfUHm9P3Q2JWAgf/SrSIKj4EjbNDEemnKu5U56D+NCp6G1qAwcHB9h17w3Xr35EROgGRGeVagiLEe0/BWF3nrSK3m2XZ9MOGozyLnaP76G6EGn8+B8i7LbGDU1+NPz/EYY7Cv2o2ziYTVenPXp470AaEYiyIPR5Wd8K6UxR/LdYtP8uZC14DjYF12Ce4O7hH7B/2HR4WhvX2Je+Pwhzb/8D+/JKQEQgmQgb+v2JLUt+wZ/5ml2pQNnTR5A+Vbacuob2WJyWhl0TLFruHAzdaGeNqUczy+2CsiD0GQuBSFL+v+Qw/Pu8Wl1eXoanOVI8faZelGgFm2a0PJwphs3wwpN1u5FQ2HJ3QM+dAyJpNm5cTEJS8l0UtMTjY7EIewSFmOblgE6aD0DKLPy+pwQLl02Fg2n78m2GXWA3aTbmeTw7dz4MBuN5pRQFqVdxMekirte5PMDByPo9+DjGYvOJDLTU7YSGA1KiOPE7OPM5cFwv+EeLQdI0xG6ciYF8DhzfDQsP3IK0UmuCPDcROwMnwYFfMZUwEB8F7UNyvuZ0EwAqwp2DK/CRg7lKdgh8N55EhkTdw9ayHlB2A2Gju5cfp22dQJ6D+E0zMcisO+wGO8HJwQamvacidP8OfBuagIdVSjRM52ooUJj4C7Z0eh+j+pnU3M0Z4zVzBaRPNZTjemD8lu2Ybldxh/sYt8M+BJ/rjokRJ7DEga82HcOH1eRIZGr2ePF5rHIubze+fzTyqRgZsRvhO9AcHNcdLgsP4I60qh0pPwYLbSrKrX0NiHJjscJ3GqbN2wfRjUP4alwv1TG94PHtMaRKNe9+CPLc89i+4H3VvDYfVuO+wcE7qYgPnY1p03wxO0wEaT0tWS/Vpqv46BUUj+JqOujYh8XxCOqlagf+VOzOqNj/AAlBw1TlD0NQwoOmatx8VNi6+UREpC+Bg5H6dF0/TD6QrnFBaKBNN8iWCPLcJOxeNQ8eFeOWM8dA382Iz1UvuxE2DQByMZJ2foVxVvxKuxsXsAtJuZp6FyJx1ejy6wJ/PqLzyyDNOImNvkPA5zjwXZbiwJ2iBq63ypEfGwAbLW1LuVGYUzl++LCZE4XcisLlYiTtXoP5Hg7l+nAc+ANnYlN8Dhq9uqNm71ahyapyCGW3t2O0qk+rtpfva9h1jCDPPYvQjwfBtOcADHYajHe698bIBesQ+u1OJEu1dA5nDqdx9ojbk4C0ej2QFKm7/WHD8WHjuxepJTr2BGlFRmLhPJq4biut8phACyIuU55MSUrJTTq45QSllymJSEky8UkK8vCjjTG3KF+mVB2aR7djNtJ0jxCKE5dUFal8QJcFXjQqIJKu5am2y/6ma5Ffk4fLcHrXUkAimZoKYiH5aG6rbbsyny6smkAuCyJIVFE2yUmScZq2+TkTfIQkLhdsmM41eEDxgU5ktvQUFWndLyfJrf+Q76jPaN3+k5SUkk+a6lcni4Q+Y0kgktQpVQ2xkHwmrqLwVZNobEV9lY/o9sFwikp/rOUAGYmFX5CPMKvuMnmW5DhzE53KKCIlEZEsly4IvMkp5AKpa6fMO0PfeviSIOYuSZSqOmfE0UZfN7K3G9WwumjTQ9W3Ssl1ivD3JN+wJMqr6KdyDRrch8oHcRRgN5eEOWUaJ3xEIsF0Cjj1NymptdGh72sbA9Vogk3rZEtKkomTKfbUFcqSyFXbSijvwgbyGBNGt0o1W64BNi27R1ELxpK3IIpu5at0VBZRxqlN5OM0lyK12nMWCX2m07rwleQxdglFiO6TjOQkuX2UtkSlkWYP68TjSyQY+nlN+1DmUsyCiRSS+FBDbzGJYs+QKEuishslyfISSOAxmbbdktZxoiwS+nxBQnFtHSojsdCPLAUijeuG5vbG9HkBxQe+T96bEqvGk7KIMmJW01ieX606KVLCyQ2TKSKjrusiEVEORfnZEgACbx5F5cnrkS+nDgfkR7CeSeG3HtUyOAsoPtC7lsErpwenAmloQBw9UBIRKaksJZw8PcMppUxT+jGlhE8iXhMckCI9giZoLZtIeS+SJvlHUV6DddaCMpMiva1p6LabVHvzKkmWd42iwzdQ4Bef0AhLC7L3Wk7hiTlanFEjHRDepenh11UOoD50dEBmCyjq7+oaKrMiybtaWz8ikcCLpkem1aiLMkdIvh1HNIMDWkcX7sXRKg9vCorL1tJmjenDx5QSPoWcBZdI/ZKmzBHSjAna7ablaS4H1ASbbrAtqSETkcBS24VLV5uWUV5MADlr1U1OhfHB5OwrpJwa+7JI6GNN1tP/Q7ckul3k6qfcPoZuvEqlalvruq7UREIiwdi6x1mzOaDG9Pl9ivliFPkLM6uXrbxPiXtjKOVpLXV8EENf6DSu5SRJ+ZXCBP+msOg/dLanOtaAXoJ38Nfw7dMBWmK9AMVfuBp9Amtd30C7GlE9hnjdNRjnDl9FpgIASpF57jRownBYG2mWZgxrlzFw1e2BTQty/H0tEXmjB8KyRtkA190be7eNg2mDddZW5wfIFinxdpcOMKhVHw6GpnYYO2MBVn6/D2fSMnH2u0H4X9CX2Hq9uNajGoR3AFb69gdPa8c0EuM3YdbJsNomztAI7dU3KLJx+XgHjHHujuqSAGc2AKPdXmm6Hn9HYJ7nZ4ge+AUWjexW4zyN60NjWHtOx7A9uxAjrggEKcKVfZGgye9psclniKbatA62RNJ0nImomnLiO3hg1lfbcbawKYo/ws3Td/GBp5a1VBig48D38EH8WVwp0Kb4ewheOQl9eLWPwoZhDOtx3ui7U4hzlQvuRbh6JAodpmqxDypG5pkIrJo/vnz6i++AcbOW48ez95tJn3poVJ93gWvAv+B49WsM7uSAcVN94R+wBmEH78DEbQRsXq7FAEw6o1unbNy891D7/koMwLN5H36LF8JvrK3O16Y6HFA7tDcy0O58AKBdB7xh44nwlKeqqB4tv7TFsDcEACXkZUp0eLW91vK4l19FB930bRoN0lkLBq/DwqEdMvKKoG1YUMENxF3P15iHNgDv7dGY+akxNv12t/FzxOq0N4KhPq6Z7V7Gq68rUCbXOpmPMl3nfeuC74Kvj/yG4NIfsODnG2rrjRU6NK4PuU5OmDG/COv3XcMTAJSXgJ+OD8LcMRa12/izQFNtuj5bKrmDPfMXISLPGl6CGDwkguTyXgRO/geseC1RIV14CUbNPAC4LsPw2ZQU7DmbAwJAhSIcOt4Pvu9107APKVL3fA2/iDzYen2HmIdKkOQiIgMnY4gVv1l1qpVG9TkHQzMnzAjeB1GhCNG7wxDyqSusy85g2Qdf4UhWifZzFRfgr0IL9Pu/ji1TlUYfyb2JYR+9hp8PX0VxvdedV/DWO/1wO+EOCmvIKlB4Iwm/6XhakstQfYnNAK/3tAMv9hLSZdoUUUCanYZsqaKBOmuBM4G5TWekZ+ZB2yuoinsnMWftaWTXKLsMkodSmPG0O+BnBs4cg9wBYfQtDcdAkN2Nh/BULUbcEIy74/+6WcE18DtMvrcaU9acqv4yXKP7UP0pqAh3o39B2UIvDDDW1iOEsjt78fm0aZg2bR5CE/7W78vEddFUm64TJYov7EFwt0XYsvhDDLPpXP5EyvFg0c8W3V5qStmvod9Ia/x6TKT1mlB8NR4xw0dgQOfmesqpDxP0dx+Dwg3HcaOsFNm/HcLVyeMx2ETjEll8CeHBnRG4ZREmDuuJzoYcAAPwLHqhd7dXtZbcdAhyWVnVv43oc2XWcXyz+ZJacFB7dLYZCNepi7DM4w4OJt7XauPKghz88bAHLLq017JXk1IUpP5Zfq3VkSaEYRvB3P1LLMxeiVnro3G7oMItKCDNuoTosIVwmxONPAIADsb2H2JJ0Y9YezxV7eKlgDTjv9i49SRqVM/EFP/XLge5hRXPDAR57jlsWb4WB6oJcnip90QEOZ6A/9I9ahEgBHnBbZwMXwL3Tw8i8yk1UGdtvAa7ESOAXy/izhPtQsr9axG4+RQyKzqBipF5eifWRryJhR9YaUzddYSl/ctIOHMN+RUXWZIi62IUtq+O0B6ZoleMYf3RArhfWY65m39FcrYUJM/HndhtmL/id/AHNOmKVB3DbnANDMW80i2YFhyn5oQa34flT0FPsHvPj9hxqBfm1Pr0U4r/JR3HDxEROFL0LtwHd9HPjcPrb8PeTIQzl+9XPjmT9B4uRv+I1TuTVReTptp0XXAwNObDRPIEpWrHkzQNsd9vwI50bcfoatOGMHWdg2WlGzBHXW8qRkbsBsz6MgufLx8D81ZreA5G1qPxWd9Y7I+Lw9GtRvBz7wkjTTHDV2Bi8hRPStXGJhUjIzYMgh2pTdTBACamXdEuI1fNKZciN/FHLA88pCbX8D5X5t/Fgc1h2Hk6Xe36W4r86zE49ntHONt20mLjZfjr6nlccBuKd9+s0RIaPIQo9CP06NkLvd03QaTrtav6klABxQcOLY9k0PzxPGnjNS2xX7IcSgxfTl72ZipZHlm6+FHIrjOUUW2RUEmyvIsU7u9Cju5zKXDdOgpZ4k2Oo4Ip7vIe8gEIGEqB8QUq+ceUHjmbbB19aPm6NRQ4z5McneZRxH/DaApAPKc1dKFIoVb8I0qJEtB0R7NKnXn2n9DycE09GqKzFh5foJC+LjUjY4hInnKYVh2+QBf3BKmVbUaO07+nmPQircEcSslNOhDgQZaVbW1NLn6rKKJa0IKCiuJXkK22foEFjdqYXG1xnRSpFOH5lvZ+BIjnVhG9pFEubwpFpJdHuygy9tMkS175dtsVFK/W1kpJGp0ODyKfEdYESxfyCdxFieLUhgdUVFJC6RFTiAcQ1BfdS6/TNjcLld5vkWdEKlVq0cg+VD6IowDbvuQrvFd75JvyLkV4WBDgRqsSHzRfhFxd/cKbqCWCSk6S2wcpYKxtlZylG/mF7KVEzSgnndujgbYky6a4IA9y9PqSQgTrKGSpD42w96KQo+G09C0t/UK62rS63gE0tsLWYEtjl/6nZv2KfqdAW552ex61ia49bo5eUtJjUSg5gUe2tQYjlZA4LphGOXrTkpB1JAhZQj4jnMk9ZC/tWupUro9nBKUryssrvRVGbjzt4xCwILdt16sFPlBZKkX6OpGjzzJaty6Q5rk7k5N/OP33J18CzMgp5FxVBG4DxoDiXjStFPxM+wQzyLFSH7M6AqSISJlBkZ841T1WKrlPMV/YlZfbcRHFPNAtQIQjau2EdKUoSL2OG6kFgFlfDBzQvY4FKwWkWVdw/koejCz61SPbWjxB6s6ZGHH5E1zbOg5d9K5PWyEbR6bNRsb8SCy219viQL1Q4Sksm3wDXsIFsNc6/QZQ7hHMsJmI415C3Aqf0Ip34W2VUhSkXkHynUIYmVmjv721aurpRYUgL0hFUnIKHhl1hU1/O9h01mWKStfipci6dAFX8o1gYeeIARY8PTyBE8qub4HLx3kIPr8CIzvVNxVKkOffxOnzmUAPJ4y061IzgEgLenBAzwFPrmDT+HXAuh2Yb6flhdQXkSeXETrqR1js3wLv7s04FdesPEHqzgVY+9py/DShey2DWoni08th63EPIck/YoaN5ueWGIwXAMpG9NzZ+PWDbfhhXMsF6ujipBiaGNthxuYvkcJvxrueZxaCPP8ahOtX4bfxy3DIoo05HypC6tnfceuhHKBsnNyQjzeX3MD5zNcwpIeJloGlwGOZCTxXf47xNb71x2C8KJjAZtIq2A/WjAJsXtgTEKMRPEBCkCeGB58DAPDsP8GCOfMwx2cwzNra1EzZDYT9cxxmn1T/FJEFxoSfRPQM2zre52IwGC0Nc0AMBoPB0AvP3dewGQwGg/FswBwQg8FgMPQCc0AMBoPB0AvMATEYDAZDLzAHxGAwGAy90AYckBSpB3/Ciaz6spE2VJbBYDAYbRm9OyDKO4sNq+/hFV7978Q2RFY7taT7ZjwfaE1rzGAw2ip6dkBPcDf6CO7P/wTD6v3WUENka6M93p66GxKxED6NLIHRhmlnjalH70Is9NO3JgwGQwf0+ikeKkzEzi2m8I/T8tnzJsgyGAwGo+2jxycgGXLPHsP5SR/q8ETTEFkGg8FgPAvozwE9uYZ9G4CFk95BvZ98bIhsQ1FbN+A4PnoFxaO4cidBnpuInYGTynO/cxw4/kB8FLRPLfGdiuJ4BPXiq2SmYndGxf4HSAgapip/GIISHmgoIEXqbn/YcHzY+O5FanOktUYpcpP2VeWs5zhw/CHw3fR79eyiDUKO/NgA2GhtJyWKE/6FXqp9NnOikKueUCtpFwLG9apsY6txX2FnklhjjUaJ4sTv4MznwHG94B8tLk98tnEmBvI5cHw3LDxQPRMrSW/hYFBV3/AHzsTG2DRI2MelGIxnA52yBjU7ZZQjnEt2gb+TlhR3TZDVEbGQfFSJz5SS6xTh70m+YUmUJ1NPu6QkmfgkBXn40caYW5RfsU+WR7djNtJ0jxCK00iapXwQRwF2c0mYU6ZxwkckEkyngFN/a0nslENRfqqEY7x5FJWnWyKnuikhsegUnRLdI0nFCWW5dEEwicZoJsBqEE8pJdyX/KJytO5VZkWS99BtdLuyCiWUE7WUnL0FFHUrT5X0Sk6SjDja6DOGfCNTSbOliGQkFs6jieu20iqPCbQg4jLlyZSklNykg1tOUHpZeYWURUkkcPOggMgrqn5TkizvCkUGeJHLCDuyFIi0J9liMBhtBv04oLLbFO7pS+Epj5tXVlfEQvKxXEcX7sXRKg9vCorL1nKxKqD4QO9anIacHpwKpKE1siY+ppTwKeQsuFQtq6QyR0gzJoRTSpm2vIJykqT8SmGCf1NY9B9VDqMFkIkEZOkjJHGjS1CSNP5b6huSSCVEpMz7Ly2wHq7KYlu+zzYwniryeirz/ksLnAPplJbsiMrCsxTk/LkWZy0jsdCPYD2Twm89qiUT42NKCfclz/DbNR1Y2W0K93iLOSAG4xlAD1NwChQmROLnnpPhWW++lYbINpC/IzDP8zNED/wCi0Z2qxmNofgLV6NPYK3rG2jHqaaxKn+GeN01GOcOX0WmQv0gY1h7TsewPbsQI5apthXhyr5I0OT3YG2kLVWBAXg278Nv8UL4jbVtpoyvCkgzzyJi1Tx4OJiD48zhMG4mvvrxNAqbVC4HY6v+cDh3B/eUSkhuxkOozMGh6OsoRily7qbDro+Fapq0fH/MBx9giJZ1O67jO3j/g0ycvJKv5TwvwTv4a/j26aA9F4kyC+cOECa4WNYMSDGyhMvEIU2qJYPBaB1a3wEpM3Bi8014eDmgU30X24bINhS+C74+8huCS3/Agp9vVFtbAAC064A3bDwRnvIUVP6kWPOXthj2Gp6L6+SEGfOLsH7fNTwBQHkJ+On4IMwd03JZBatDKEmNxHy/vciz9YYgJhNEYlyODMLkITZoarJsrosNBpWkIPNRPkSxN/DJd9/CXRgHUfFDZN5QwNnWtBnq2Q7tjQxqL4fkKHvyCl59WVtAigFefrXtpgRnMBhVtLIDIjy5+gt2dJyKSQM6NKNsIzDujv/rZgXXwO8w+d5qTFlzqvoCPfcmhn30Gn4+fBXFDVrUVn8KKsLd6F9QttALA4zruiyXoiD1T2RLFXXI6MoDXAg/hG6Ba7F44tDKXPUczwL9endDk/OVGnSFzcAcpNxIRKywP0a7jcboiTcQm3QdKRe6oafFyyrBduD3G44xv/6K84U160XFd3A6pgfcBpg2QodueGdMHhJuFKBG11ABbiRcaniZDAaj1WldB0TZiPnhIjzmusK8vtvkhsg2BcNucA0MxbzSLZgWHKfmhIxg7v4lFmavxKz10bhdUBHVpoA06xKiwxbCbU408rQ4p/KnoCfYvedH7DjUC3PqfPp5CFHoR+jRsxd6u2+CSKpsaoVgbGIIyZMytYuzAtKMWHwv2IP0JpYO8NGj70uIDt2KoxPfg4NJZziM7o+jm7Yg2rwfbDpWPZVwpi5YsqwUgXM2IPp2virqrVyX9bNWIO3z+fineWPe6uoA+0+8ULR+E45nFFfVk4qRceJHbD1R0ORaMhiMVqD1lpuUVHptEw31qG0xvrGyDaGE0iOmEA8gqKLgiIio9Dptc7Moj0TDW+QZkUqKikNkOZQYvpy87M1U+3lk6eJHIbvOUIak9og15YM4CrDtS77Ce7UspFdwn2K+sCsvu+MiitGyYN8wVNF7o4aT15JgEgiCaanPKLJ3X0VHdy2itwACbwpFpJfUX1QtyK9tpHdhR1/E3C/fUHSKlpqB3lIFJ1SnhMSJ/6GlY22r2m9sAIUn5mgECRRQfOBQlYzGj+dJG69pxkCWUN7lcPJ3cib3eYG0ThBMS7yG06igE3R5/8zy42xXUHyRghgMRtuk9VJyUx5OL/scJ922YM3ILnWvEzREto1ChaewbPINeAkXwL7O6TeCPP8mTp/PBHo4YaRdl+b5PIW8AKlJybjzyAhmNv1hb9O5+T57UZKJhJgsvPHeUNjwDAA8RmZCPP7qNhzDerzaXGfRDXkBUpNvIDWfg5mdIwZY8J5Je2EwXkRazwEps3D65xT08HkPPbRGgzVStk3yBKk7F2Dta8vx04Tu7ILIYDAYWmg9B/S8Q0VIPfs7bj2UA5SNkyvOosuST+E2bDiG9DBhTojBYDA0YA6ouSi7gbB/jsPsk9lqGy0wJvwkomfYgn3BjsFgMKrDHBCDwWAw9ILeE9IxGAwG48WEOSAGg8Fg6AXmgBgMBoOhF5gDYjAYDIZeYA6IwWAwGHqhDTggKVIP/oQTWaX1izZIlsFgMBhtGb07IMo7iw2r7+EVXv0fimmIrH4oReaBWbCqzBvkjyO58voPYzQcZToOTO5XlaNp2hHk6nCYPDkUVs91vxDkub9jk+8Q8CvtkA+riRFIbY6PrTMYzYieHdAT3I0+gvvzP8EwLUnLGi+rL9qjh/cOpBGBKAtCn5frP4TRONpZwnvvzfK8TGIhfPSmiBjR/lMQdueJ3jSohjITwsX/hvjjSDyszF0lQZrQBzZtddi0CArkRy/EP8JugfndtoteHyWoMBE7t5jCP65nzcyWTZBlMGrD0H4x0pr11WsFyp4+gvRpU9NoNBN/X8OvF4dh/i4L/Q5uvUOQlz1FjrS0Zs4oRptBj09AMuSePYbzkz7U4YmmIbKMKkpRkHoVF5Mu4nq2lA3EBkGQF9xF8sUkJF3Prpkx94VEAWn2LVxMuojk1AI8f5OYrM9bHf1kgSCix5dIMPRzEuaUNa9srcgoL2YpWVfmmelLkyLTSEFESvEvNNuaV5mvxnr2LySuSOIjy6HEiNU0z92+PI8QQDzHz2jj739p5LPRJIuEPl+QUKxFSpFKEZ5vEQCyFIhU5Sip9FYYufGgsb18n0x8gcKXf0L2vIocOY7kFbiXRHna8vooSSY+QwJvO7W8OhY04ou1JAgKJ5FEW44cCaVE+JE1eGQ9fQ+lPG2OPEwlJE7cSyHzPNX0dqbpG8+SWNaMeZ7EQvLxEZK4VgHNvvfT3i+V4n/R74LJavIg3ogvaINgFYWJClVCUrq1bWKlTVT/8chy0n7KaHIqIl1zKREp0iPIk6dNFxDPM4LSm6SLkmTis7RxurNafXlk7b2W9v20mgTxedXFZTmUGB5AYy0rxpQtjV36H0oUq9lqA8eAUhxD3073IZ/P99Ll6wcpoLJNbMk96CilVObmql5GjZ/lTIrM0DJmdOpzRnOjJwdURjnCuWQX+DtpphlrmqwO1ObMlLkUs2AihSQ+rL5dJiZR7BkSZUlUieWUJMtLIIHHZNp2S1rHiepwQOUFk1jop+FotG1XJZjz8KONMbcov+LCLcuj2zEbabpHCMWJNQdUAcUHvk/emxIpr0JeWUQZMatpLK+2i28ORfmpBjVvHkXlNTUxHhFRCYlFp+iU6B5JKh16Ll0QTKIx265TaTOcgYh0cEDq1NcvCiqKX0F23j/QpUrnLidJxn8pZOy75CPM0lLeWBKIJI3VvhZKKCdqKTl7CyjqVp7KFuQkyYijjT5jyDcylbTejomF5KOebLEZUBYm0KpRY2lBxOXq9nR6G/nZ21ZvE9k9ilowlrwFUXQrv6RK9tQm8nGaS5Hpj9VK1nUMqNWNZ0mOMzfRqYyi8vEoy6ULAm9yCrlAEl3K0EpD+5zRXOhnCk52FzG7n2D+FAeYNKesLhj3gbvvI2w4fBtlapuVmb9hx/8+gJd9h+ryhmawdxsB+8pEZxwMTd+By9BHSEwpbA6N6qEQidvCUTp/JeaN7oPOhqrEDoam6D16LtbPL8WKjedQWG26QI4nxXJ0fLMrOlbIcybo4TYDy7ePR9+O2qYx38CIL/+NMMG/ERY5ByM6N8dUZ3uY2Y/ESPvu4FXkozDsCkeXd3E3MQ0PmuEMzQ9B/kSCoo7mMO/4kmqbAXg93sOs5UH4qG/H1tEi/wwEa9ojeOtCjOtjqlrPMQCvhyvmff8VLDZtQpRY1gqalCIzehcuf7wO66Y6wFTdnlxm4Oslo2D8UoWtyJF/aivWtF+IrYvGoU/n9lWyI+fg+7VdsSkkBuKmTG3x/4mgkNkYWZHixLArBnuPR/efzyOl0XOCbaPPX0T0sE6pQGFCJH7uORnHrRIsrZIAACAASURBVI2bUVZXjGE9zht93YQ4N6UfRnYyAFCEq0ei0GFqKKw1E+BRMTLPHsO+o0dx9OdjSIY9xn4yFN3E94G3m0mlulD8havRJ7A2+ADW1iZjaYLMEFd0quzNLnAN+Bdytn6NwZ+louvYfuhmboN3BgzGcLcRsHlZW3YiA/Bs3off4vebU3lIMxNwZJ8QwqNC/JIM2I8dixHdclDYKo3XGAzQyfVL7M/ZhoWDFyOj6yD06dYNPd+xx+DhLhhtw2sFHZSQ3IxHzAfu+E7LmifX8R28/4EA/7mSjwnm5i2sSx6uxT3G6IC3tAT/vITu3puwrfL/R7h5+i4+GL8MnWqYmAE6DnwPH/juw5UCD5ibNvIGx/hNmHWqftniDI3QvnGlVeqm/z5/MWn9JyBlBk5svgkPLwctRtoE2QbAdRmGz6akYM/ZnPLJ3kIRDh3vB9/3umkkjpMidc/X8IvIg63Xd4h5qARJLiIycDKGWPGbT6G6aNcBb9h4IjzlqSqkVssvbTHsq41JDoZmTpgRvA+iQhGid4ch5FNXWJedwbIPvsKRrJJWUJxQkhqJ+X57kWfrDUFMJojEuBwZhMlDbNCmh7ShOQbPCMZBURpE0XsQHvIpXK1LcHbZZMw7kvkcLr4zWJ/rh1Z2QIQnV3/Bjo5TMWlAh2aUbSgm6O8+BoUbjuNGWSmyfzuEq5PHY7CJRnMUX0J4cGcEblmEicN6qqa/DMCz6IXe3V5tZp0qIMhlapOD3JsY9tFr+PnwVRTrOHWhzDqObzZfgrRyS3t0thkI16mLsMzjDg4m3q8lIq4UBal/IlvaHG9OPMCF8EPoFrgWiycOhY1qOobjWaBf7254qZ6j9Ybyfzj2zQ6IpBVh1RwMO9tgkOtUfLNsBGIOXkJui0dHtQO/33CM+fVXnC+s2RdUfAenY3rAbYBpSysCoBN6OrVDbNL/oHXCj6TI/vMvVcTYa+g30hq/HhNpTAkDgALFV+MRM3wEBtQ7vasxBlqaNtHnLyat64AoGzE/XITHXFeY1/dE0xDZBsPByHo0Pusbi/1xcTi61Qh+7lreLzJ8BSYmT/GkVO0dDypGRmwYBDtSm6iDAUxMu6JdRq7aYC1FbuKPWB54SE3OCObuX2Jh9krMWh+N2wUVnyFSQJp1CdFhC+E2Jxp5agNEmX8XBzaHYefpdLVQ0lLkX4/Bsd87wtm2k5YU4Q8hCv0IPXr2Qm/3TWqDsbEYwtjEEJInZWrOTgFpRiy+F+xBehNLbzGUD5B2IAybd55BZqUjJsjzr+HYsUuwcbbG69UaryMs7V9GwplryJerakpSZF2MwvbVEUhuZDtypi5YsqwUgXM2IPp2vuoOvLz91s9agbTP5+Of5q3xRtyr6O3tD8fIpVi6W1RVR5Si4M5vCF/4MT6NTMNTAIAhTF3nYFnpBsxRt1UqRkbsBsz6MgufLx+jNp51HQONwQCvW/aBWUICLudrjJnt67Ez+WGVaIP7nNFstF68g5JKr22ioR7hlFJWXwhuQ2Qbr89jUSg5gUe2AXH0QOtpSkgcF0yjHL1pScg6EoQsIZ8RzuQespd2LXXSCHGtJ/wTFuSmGflVlkqRvk7k6LOM1q0LpHnuzuTkH07//cmXADNyCjlXFfkny6HE8OXkZW9WFZLr4kchu85QhqR6xJriXjStFPxM+wQzyLFSHzOy91quNYS3nPsU84UqbLvjIop50NQoOFX03qjh5LUkmASCYFrqM4rs3VfR0V2L6C2AwJtCEenawsjro64QaBB4E6tFKNYVolyjXxSZFLUylHbtW0fTHc0q5Xj2n9Dy8Ataw8eVkpt0IMCDLCvLtCYXv1UUUWtb64quYdjlUVy2tYSE2zZDBKlS8gdFabOn02lVEY4V6BKGXYFOY0Cjfmp2o8jYT5MqzmO7guKL1OLNlY/o9oGv1fRQjZmIxOr92Ig+ZzQPrZeSm/JwetnnOOm2BWtGdtFyB95I2RaHIC9IRVJyCh4ZdYVNf7vK6aTmKV6KrEsXcCXfCBZ2jhhQGW3X2hDk+Tdx+nwm0MMJI+26NE+EirwAqUnJuPPICGY2/WFv0/kFf0OfUYM2MwYYrU3rOSBlFk7/nIIePu+hh2akWVNkGQwGg/FM0noOiMFgMBgMNfSejoHBYDAYLybMATEYDAZDLzAHxGAwGAy9wBwQg8FgMPQCc0AMBoPB0AvMATEYDAZDLzAHxGAwGAy9wBwQg8FgMPSCfhyQPBmhVlaYdiRbL6d/EVBmRmKyFR8cx4HjntO2pmJknFgNDys+OI4Pq3Hf4OCdolq+9M1gMNoaz8kTkAL50Qvxj7BbaI5EAs8D7Xp8jL1pEhDJIBaOq0dajGj/KQi786RVdGseFHiYtB2z976G5YkFIHqEa2tt8N/PVuJEbmtkCmUwGE1FPw7I0B6L09Kwa4JFMxVIkJc9RY60lN39NgoFyp4+gvRpU1MwtCLKDESvu4BRiybD0bQ9AAPw+nhh2Wd5WLP3Gp4lV8pgvKg8J09AzzIEecFdJF9MQtL1bLX8PYy6oJwrOJE5BC59TdS2GsPaxQ2mx5PxP/YozGC0eVrVAVF+DBba1L8uQbmxWOE7DdPm7YPoxiF8Na6X6phe8Pj2GFLVkkaV3d6O0XwjmE/cjvQlDjDiOJUsB85qFg5klmo9h24oUZz4HZz55ef2jxaDpGmI3TgTA/kcOL4bFh64peY0CPLcROwMnAQHvkoH/kB8FLQPyfla9JDnID50Knqb2sBhsBOc3ukOs5EL8H3oamxXS5ilzNiN8XwOHOeC0OSKPKePcTvsQ/A5ze0NoaKM7pgYcQJLHPhVbcfxYTU5Eplt9KFIkZcNkd3bMG9f/WvpnLk1HB/dx4OSmp6cHp7D6pHdwfH/gS9j/mJPywyGnmlVB8SZjsGG1PrXJTiz0Vix2gP4TxDmbLkPt80XoSQCyc7gK34kpm+sSDfN4aU+foiVyCAW+sFSIIKMCFTxS9sB7x5Nyd3TDiZOX+GCRAaxcBQK/jiONVMCENPJDyceKqHM/TecC7KQJy/PYSXPjUPw7F2QDv0GMQ+V5To8PIEVQwqwZWYoTuWqOyElihN/wnyRM/bmlah0liN35xg8PnsYF+5VOZR2b0/FUUkWhD7qacBfRR//w5CQ5vaGoF7GWAhEkqq2IwnS9n6MHo21kOJ4BPVSd2jafsMQlPCgkSeoBQMjtH96H/nFNR+BlFlXcPhMNiCNR+SZVEia98wMBqOBtO3cYPx/IihkNkZ2Ualp2BWDvceju8t5pAQ4wb5VtS+D8Mer+ODoTizr06E8YRavL7zm9lXtf4DEbeEonb8J89ST6BmaovfouVhv9C94bDyHd9e4ohMHAAT5EwmKOtrBvONLKmED8Hq8h1nLS3CpU8fWrFzzYzIcK/+QYKW+9VDDoP807DlqhF+zOmKo1xCY1H8Ig8FoQdq2AzJ+E2adqqvIGRqhGfORNoCX4B38JXwrnI8mir9wNfoE1gYfwNrairA0QWaIK8qrZIBOrl9if842LBy8GBldB6FPt27o+Y49Bg93wWgbXktV5PlGIUPpK11hamJQcx/XAb09Z6N362vFYDC0wIIQdKYd2hsZ1J4quF0HvGHjifCUp2rTWBq/tMXVn9oMzTF4RjAOitIgit6D8JBP4WpdgrPLJmPekUzIW6FWLUYLT8EZdLGAw/UMiEurr+SQ+C4uv9YVr7/MMukyGG0d5oCaC+5NDPvoNfx8+CqKdVndVv4Px77ZAZG0YpWfg2FnGwxynYpvlo1AzMFLyNWlHFJAVtoGIwVUU3C1OmMiECVg5bDXG1U89+YAjO1xHmduFattfYK7Z04i38Meb2l5AKoK5uiH2dE5LAiBwdAzz4kDMsDrln1glpCAy5XRZgpIsy4hevt67FSLKGs5jGDu/iUWZq/ErPXRuF2goUfYQrjNiUZexVVP+QBpB8KweecZZKpF9cnzr+HYsUuwcbbG69Vu4l+F6f8BGblqb/rLxUjcshKBB542UfeOsLR/GQlnriFfriqdpMi6GIXtqyOQLG2DDq7d2xi31Bm/rd+r6nMFpLcPYc1PXbBs8jswrnFAKe6dj8UxKcAbNQv+I81rf5plMBitA7UWilSK8HyrPFxMy4/nFka3SpVEpKCi+BVkW7GPN4Ui0kvKi8jYT5MseeXbbVdQfJGiqnzlI7p94GsaW7EfPLJ08aOQiEQSy5SNVLqA4gOHateZ50kbrxXVPESWQ4nhy8nL3qy6HrvOUIZErtYemRS1MpR27VtH0x3NqtrB/hNaHn5Bi85KKkuPJF/boeSzfA2tC5xL7o4u5B9xlH6aYknguVHIhQfloqXXaZubhQ5trVa65CYdCPAgy0o5a3LxW0URiTkka2TrtTjKIkqPXkXulrzydh77NR24/Yi09rbyL4ry70uAMwWc+lu7DIPBaFU4ImIzEc8QJL2HS+evI9/IAnYD+8OCp2WuiVGT4tMIsHXF1oHhSD7kCxsj9vzDYOgb5oAYLwCExwn/Qq/hFzFfFInF9h30rRCDwUBbD8NmMJoFAhl3w4ehIzFtAHM+DEZbgT0BMRgMBkMvPCdRcAwGg8F41mAOiMFgMBh6gTkgBoPBYOgF5oAYDAaDoReYA2IwGAyGXmAOiMFgMBh6gTkgBoPBYOgFPTmgUuTGb4bvQHO1T/P3wsTdKaiZx5KhPSX3s4U8ORRWnD+O5D7TSSa0UIrMA7NgVWnHz2MdGYyWQS8OSJl1DIuX5eHj45lqn+b/A8KpPcG+bFYT7Sm5GW2D9ujhvQNpRCDKgtDnZX0rxGA8M+jhUzxy/C06g4vjZ2KXmX5ymzJaH0P7xUhj39xgMBhqsG/BtQVIiuybd5DzxBCdrPrApjNzzIzGUoqC1DtILyzDy2/2QX8LHst7xGiztOIUXCkydk8FnzOC+cTtSF/iAKPKefMeGL/7LqqnPSPIcxOxM8Czan7dyhMBOxORK9e4lS4+j1XO5etJfP9o5FMxMmI3qtaYusNl4QHckTZmdUmlQ+AkOPBVOvAH4qOgfUiuTHxXvY65Sfuwav54Nfkh8N30e02dK+TjN8N3kA262w2Ck5M9epoOwsehuxD+7Q9IeFhTZ3p0Ewe/qmgTczh8vBrHUosakd1TjvzYANhU9kE/TD6QDiUAyo3CHJuKdNp82MyJ0i07a73nqG19RIbc2DXwneaLeZFJuHHwG4yzUp3faiK+PfYnpM1yfh3rKBcjafcazPdwAF91LH/gTGyKz2l8mnTlXewe3wMcx8EqNFlVDqHs9naMVtlK1fbyfQ2zPYI89yxCPx4E054DMNhpMN7p3hsjF6xD6Lc7a0kqKEXqbn/YcHzY+O5Fagl7RGW0Mq2fgkhGYqEfWQpEdSQ6U5IsJ4oWOE8hQdRNylclZ1NK0ujUxhnk5BtJ6WVaUoqJheQzcRWFr5pEYxdEkCivpDxR3cFwikp/3EA9lSQTn6QgDz/aGHOrUgeS5dHtmI003SOE4sQlGseUkFh0ik6J7pGkQj1ZLl0QTKIx265TaTVZORVeWEejXBZRhOh+ZVsoJWl0ettssocfCcXqLZRFQh9bsnT0o00XKpLElZD493Xk7raJrj1uZIq1x5dIMPRzEuaUaVQ/l2IWTKSQxIeNK7cGWST0+UKjTuqU2wXPcjjN3BinSt6nJFleAgnc3Skk8UHjT93QOsrEJIo9Q6IsiSpxnUoPj8m07Za0jhPpVseatq+5vTG2V0Dxge+T96ZEyquQVxZRRsxqGsvTtKUKcijKz1aVYHEeReXJtcgwGC1H23RASjHFLJigPXOlMo/igzzJV3iv5j6xkHzwLk0Pv17lABpNAcUHeteSPVNOD04F0tCAOHqgw3lkIgFZ+ghJrL5RkUoRE3wpPEWLY1RmUOSkJRoXhCwS+rhQwKm86vooMynS25u23W6og63gMaWET6GhG69Wc5CK9Aia4BlOKdocfaPQ7eJsNjuK/q52yjLKivSt54alPpqjjhISCcaSjzCrDpnmckCNsb37FPPFKPIXZlYvW3mfEvfGUMpTbXWUkyTlVwoT/JvCov9ohjHDYDSMtvkekOQPnI6xh+cQ05rz11xnDHzfEfEnb6BA27HeAVjp2x+8pk58K/7C1egTWOv6BtpVTuFU/Azxumswzh2+isxqs2QKSDPPImLVPHg4mJdPkY2bia9+PI1CzfL/vom4vIEYbGlc89xcD3jvXYdxppoxgcbo3OGV6m3CGcCovRTSp9qmWHTBGNbjvNF3pxDnCisqU4SrR6LQYep7sG7lzKHGb5uhU/UKwtDopaaW2rA6UjEyz0RUTaXyHTBu1nL8ePZ+E/XQkUbZXhe4BvwLjle/xuBODhg31Rf+AWsQdvAOTNxGwOZlbf1oAJ7N+/BbvBB+Y22bPmYYjAbSNh1QU2hvBMPmGEjtOuANG0+EpzxVCxXX+KUthn1lGAehJDUS8/32Is/WG4KYTBCJcTkyCJOH2IDXDCq1FFyXYfhsSgr2nM0BAaBCEQ4d7wff97o9NwvYutdRitQ9X8MvIg+2Xt8h5qESJLmIyMDJGGLFbx1lG2x7AMDB0MwJM4L3QVQoQvTuMIR86grrsjNY9sFXOJJV0jq6MxgNoG06IH4vjByTjGPn82surtNDXD19BcPd+qNzS+rAvYlhH72Gnw9fRbFOa7MPcCH8ELoFrsXiiUMrI9k4ngX69e6GGvfwr1vBiXcRSelPtJZG0r/wZ7a0EcEFjcEE/d3HoHDDcdwoK0X2b4dwdfJ4DDZpm+bROHSsY/ElhAd3RuCWRZg4rCc6G3IADMCz6IXe3VrqPSyCXFZW9W+DbQ9QZh3HN5svoeo15fbobDMQrlMXYZnHHRxMvF+LLZWiIPVPZDcqSIfBaBpt8wrDdYXrEl+UBi7C+uhbKFBFkJE0DbHrv8CXaV5Y/k+LFr47N4K5+5dYmL0Ss9ZH43ZBReSRAtKsS4gOWwi3OdHIqxzVhjA2MYTkSZnaQFdAmhGL7wV7kK5Z/Et94B3UG5H+Qdid/HdV9JM8H3dO/oiF7vMQmdlaXz3gYGQ9Gp/1jcX+uDgc3WoEP/eeMGqls7cOOtbR8BWYmDzFk1K1KU0qRkZsGAQ7UpuogwFMTLuiXUYuCiuNpBS5iT9ieeAhNbmG2h6gzL+LA5vDsPN0ulrEYCnyr8fg2O8d4WzbSct4eQhR6Efo0bMXertvgkhrpByD0YK03nJTAcUHDi2PuKnxG0qB8QUa8kqSiS9Q+FIPsqyQs/SgpeEXSCxTXy1VUFH8CrLVWq4FjdqYTI1dniciIlkOJYYvJy97M1WZPLJ08aOQXWdUkVrq+p6koFHDyWtJMAkEwbTUZxTZu6+io7sW0VsAgTeFItLVo5fkJEmJJsF0Z+JV6MxzJK/l4XQ6o6hqAbrodwq05anO/xZ5RqSSoq7tjUJJj0Wh5AQe2eoYXFEfivQI8uRp65fyvnGrjAysbhs8zwhKVxARlVBG5ExV//PINvB3KmqSRrrUsYTEccE0ytGbloSsI0HIEvIZ4UzuIXtp11InDf2UVHorjNx0qqOKslSK9HUiR59ltG5dIM1zdyYn/3D670++BJiRU8i5qjrqbHtEinvRtFLwM+0TzCDHSn3MyN5rOYUn5tQSwHGfYr6wK5ftuIhiHrAoOEbrwhERC/5vTuQFSE1Kxp1HRjCz6Q97m87sbd9nDoK8IBVJySl4ZNQVNv3tmvflYJIi69IFXMk3goWdIwbo7WVRgjz/Jk6fzwR6OGGkXRdmq4xWhTkgBoPBYOiFtrkGxGAwGIznHuaAGAwGg6EXmANiMBgMhl5gDojBYDAYeoE5IAaDwWDoBeaAGAwGg6EXmANiMBgMhl5gDojBYDAYeoE5IAaDwWDoBeaAGAwGg6EXmAPSI8rMSEy24qsSjVlh2pFsfavEeJGhItz57RwySpr2dS4quIpfk3KqvvDOYNQCc0B6pF2Pj7E3TQIiGcTCcfVIixHtPwVhd7TnD2ouSJqH+62dG0Z5F7vH99DI/MmB4/iwGrkQ2xPFz8fFrNZ6cuD4HyLs9uMmFK5AfvRC/CPsFhrXewoUX9yOmT+kQq6ZiLehtCtEvH8Q9teS64rBqIA5oGcGBcqePmpC6m1deIwbO2cj4KS4Bc+hhXbWmHr0LsRCP1gKRJBVZv58hGs/uSLn2wX4XlTYSsn5WpB21ph6NFNVtywIfcZCIJKU/y85DP8+TUl4R5CXPUWOtLRx7SRLweHv4jBs/rgmp2HnOjlhxvxSrPsxUS3vEYNRE+aAdEVegNTki0hKuvEcZ48kyMtK6xdrNQzAe3ssvlr5LvbtuYyHrXpugrzgLpIvJiHperZakrfnESWKkw5BkDcaXoNNmyE1hDGsx0yAY8R/cCKzLdkTo63xfDig4vNY5WwOjuPA949GPhUjI3YjfAeag+O6w2XhAdypdBoEeW4idgZOggO/YvpjID4K2ofkfG2DpRS58d/j49490NNhMJyc7NDd7H0s+F6Ab7eLKlMgKzN2YzyfA8e5IDS5Yutj3A77EHxOc3tDqCijOyZGnMASB371KarJkch8rhNZcjD+v57ol5yJ++p+Xy5G0u41mO/hoGpfDvyBM7EpXsvaQ4PsA4A8B/GhU9Hb1AYOg53g9E53mI1cgO9DV2N7srobbKgt6YoMubFr4DvNF/Mik3Dj4DcYV7FWaDUR3x77U80hEspub8dovhHMJ25H+hIHGKlP7VnNwoF6nUA+EoVR6PSxK/oZV7gfOfJjA2BTWVY/TD6QDiUAyo3CHBt+pQ3azIlCroaD5swcMG70Tew5m4n6zJMensPqkd3B8f+BL2P+evafdBk683w4IJMh+OaCGCQWYkLBDUStmY35MZ3w+YlMkPImfnB+jIy8UpRfMOIQPHsXpEO/QcxDZfn0x8MTWDGkAFtmhuJUrsZgLb6IbfOTMWRvWuXUkDJ3G95/fAH/vpAFiUqs3dtTcVSSBaGP+jTKq+jjfxgS0tzeENTLUJuyIQKRBGl7P0aP1urF4ngE9eJrX8Oo/A1DUMKDZjypHHnJ53DTpTe6VVub4GD0hhOmbTmLYiIQKfHwxDSU/TsAP2mupehsHwCgRHHiT5gvcsbevBJVO8uRu3MMHp89jAv3Km4iGmFLOmMEs9FLsNqjPf6zPABb7o/E5muPQKSELHEh+D8HYOPFwsp2eKmPH2IlMi1TmARK2wHvHvUk03ucivNHgKF9u+Glyo2GMB29FqmPL0Ew9HMIc65gr7cl2gHgzP6JrSl3EbNgIkISs5G69Z8w03xs4rqg7zAbnPzlMu7V41GUWVdw+Ew2II1H5JnUyjHFeP55/hIgCg8j4YP/IHJZf/A4AGiP3l4z0BsA8ACJ28JROn8T5o3sUjXVYGiK3qPnYr3Rv+Cx8RzeXeOKTpU3gk9RXNQR75i/VtlYHM8SbrO+wvZLHdGxVSvX3ChRnBCMQcNX4M9q27sjouJP3iSEJ/+IGTbGgMlwrPxDgpWtolt5VtLEU/uxft/rEIQNgon6bkMz2LuZqW3gYGj6DlyGPsKmlMLa11PqtA/VeZ9IUNTRDuYdKy7HBuD1eA+zlpfgUqeKHi9suC01Ar7bEoTMc0UXrqL4QfCe9DpczmUiYHCnZhnAVChGanY3jOhqXHOncR+4+z7Cp4dvY9z8dyodlDLzN+z43wdYY9+hllKN0PnN7uh4628UKoAedShq0H8a9hw1wq9ZHTHUa0j1fmY81zx/Dsg7ACt9Ky4uGij+wtXoE1gbfABrazve0gSZIa7oVNEynUYgYP/f2LpwGD7L6IKxfSxg3tMOAwYPh9toa7zcMrVoJdrBZNi3+IO+Vf0vRXLox9j09jbsmmChF43SlzjAaEn53zx7T3z68SQsD3OHg5nGXTwVI/PsMew7ehRHfz6GZNhj7CdD0U18H3i7jhPUZR8AAAN0cv0S+3O2YeHgxcjoOgh9unVDz3fsMXi4C0bb8MrFGmNLjcD4bTMNB8bB0Oil2sQbhSIvGyJ0xUcdtZVrDOtx3ujrJsS5Kf0wspMBgCJcPRKFDlND6whYMIBJ567olJ6Ge/ly2JvV0QhcB/T2nK12E8B4UXg+puDUaW8Ew9rGRLsOeMPGE+EpT9WmsTR+aYthX22stIfZYB8EH7yEQlE0docH41NXS5SdDcIH844iS/4CzVi3whSc+hSSRHQU3y/2qul8IEXqnq/hF5EHW6/vyqe/JBcRGTgZQ6z4dZ+gLvuowNAcg2cE46AoDaLoPQgP+RSu1iU4u2wy5h3JLF9japQttU0MuljAAfeR97BM636uyzB8NiUFe87mgABQoQiHjveD73vd6ghYUKC44D4KLa3wf6bPQCMw9MLz54DqgnsTwz56DT8fvopinfxGKbKOCbBZpLbwbNgZNoNGYeo3i+ERE43EXB3eUCEFZKXPQaSAagqu1gsuEYgSsHLY6y2rR/ElhAd3RuCWRZg4rCc6G3IADMCz6IXe3ZoSygxA+T8c+2YHRNKK/uJg2NkGg1yn4ptlIxBz8FL5gnuDbantwnUyh43FX8i8X9t7Oybo7z4GhRuO40ZZKbJ/O4Srk8djsEldlw8ZCnKy8NDBAl3qea+oKoCnH2ZH57AghBeIF8sBwQjm7l9iYfZKzFofjdsFFYvECkizLiE6bCHc5kQjr3IEyJCf9l9s3rwHpzOLqwaGPA/Xj/2C323ehe3r6nd3r8L0/4CM3CI1WTESt6xE4IGnTdS9IyztX0bCmWvIr3jqIimyLkZh++oIJEufAwenK4avwMTkKZ6oO3UqRkZsGAQ7UptWtvIB0g6EYfPOM8hUj5zMv4Zjxy7Bxtkar3NAw22ppTHA65Z9YJaQgMv5GrpsX4+dyXUEsb/aCyM+aYdfE+9CuwviYGQ9Gp/1jcX+uDgc3WoEP/eeMKpLHcrF1bg/4OZmhzfrfOIsxb3zsTgmBXijZsF/pHkzT3XUMgAAEI9JREFUhIEznhnomUdBRfEryBblswPVfxY0amMyPdY8RJZDieHLycveTCXHI0sXPwrZdYYyJHI1wRK6F/VvEuzaRYLpzsSrKJfnSF7Ld1GiuESjYCWVpUeSr+1Q8lm+htYFziV3RxfyjzhKP02xJPDcKOTCg3LR0uu0zc1Ci87lP55bGN0qVVYvXXKTDgR4kGWlnDW5+K2iiMQckjVLWyrpaYaIRDXq1cIoUinC860afee27TqVaj2ghMRxwTTK0ZuWhKwjQcgS8hnhTO4he2nXUqfy9vOMoHQFUYPtQ5FJUStDade+dTTd0ayqP+w/oeXhF0gsq94nuttSbfWssKmJtO2WVCVYQPGBQ6vOXVmXEsqInKnqfx7ZBv5ORerlKx/R7QNf01hLXnVdIhJr6l0NJT1OXE19+66mxMe1ySnpsSiUnMAj24A4elBXcUSkvBdJn5jNJmFOWT2Cf1GUf18CnCng1N9UT7GM5wyOiNgTbzND0nu4dP468o0sYDewPyx4Tf22CaMm5VFySckpeGTUFTb97WDTuZ5wY0btyO5gp9dnuPzZIWwd92YTn0KkuL5pMj4Wz8f5+qIAi08jwNYVWweGI/mQL2ya+BUGxrMFc0AMBgMA4cn1LRi/FFh39HPYGTfeEVBuFOZOPIsPhN9hnFldE3WExwn/Qq/hFzFfFInFtYZ0M55XWHgKg8EAwMG4vw82B/4P/KZGefNtMWmzAwbX6XwAgEDG3fBh6EhMG8Ccz4sIewJiMBgMhl54waLgGAwGg9FWYA6IwWAwGHqBOSAGg8Fg6AXmgBgMBoOhF5gDYjAYDIZeYA6IwWAwGHqBOSAGg8Fg6IXnzgHJk0NhxfnjiC5fqW40CkjvnMWZjMf1izY7pShIvYbk5FvIVk8j3epIkRzqAm7aEeTqUYvq6LNfWgBlOg5M7leV6qI525rykPzrJeTqlE5EjoLk00hqdIZXBkM7reOAlHexe3yPuvPItOaFLD8a/v8Iw51GXr+p+BI2zQxHprz650qqPitf8TPH6J1/onm+U02Q555F6MeDYNrzXTg49EN3s3H4KmInQoNPIKvaSRTIj16If4Tdgj5dVGtTW788s7SzhPfem+VpLsRC+NQp3PA+L4r/Fov234WsXkkO7YrOwH/RYaTL2HvrjOajdRxQO2tMPXpXe856nQaX7hjaL0YahWFCXRkY5WV4miPF00aNpSe4e/gH7B82HZ7W1VMYt3t7Ko5KCET5OLXUCyu2zQXCf8PNsmYYtLK72L/oX7jtsh15MiWIlJBlrEK/q7uwZNcfyK/mgAjysqfIkZa2YG4VHuwXnwHtmgCz+oVbgdr75cWggX3OmWLYDC88WbcbCYX1uSwDdBr2CeY/2YUfE/JZvh5Gs/HcTcG1OMUi7BEUYpqXQ61f+aW8JBz67V2MnjIe3rzT+P2PuqaECPKCu0i+mISk69mQ1jK6lZnnsOfBVCybOQimhhwADoamAzBp/mfwaGqdngd06JcWRV6A1OSLSEq6oeepUV3hYGT9HnwcY7H5REb9T+lG1hjjY4WIzbHIfIFSTzFamNbL/CAjsdCPLAWi8tw1ykeUknCtPE/J0wxKSMigp0SkzDtFq6b7kM/cTbR/x0yyBojnOI8irt6ks4LJ5f+7BFNctZw1MsqLWUrWlflV/Ego1pIhp84cPH1pUmQaKeqsg5wexCyijs6b6FppbZlLZPR31AJ6N+QCPaYSSo/wIbuQCzVzEhERyf6/vXMPavJKw/gTgdLqJxQBFSzakoWlijIuoGJtB6TEbnWEGQdvrSnaEbEVRVeXWgVdQW1lW0RbpZe4I9WKl6hd6YrWGxehQqhSoRZKQC6CAqJcVC4h7/5BEpKYG1ZNrec3kz9g3u985ztvct6c8z1fnhrKUFyTsh+c/zJKTNhIyZImjVB5rZjCJuk4r7yVqisaFX5AcuooSiYBp9tjCPyFlFqu7fVzk3LiBT1eR1wkHavvoFbpCdqq8D/i/FdRavHtXp8WeS2lR/n2tikUU62ua5NXU/q6hSQURtO+/AtqPkYc8aevpyMlt+/3fum6RjnJURSg9LPhB1P0/ktUmZFIYUIhCSO+JEmrrgwZyUtzNsX79fj1cIuOUb28maTpWxV+Py7kH5VKxSrvHjl11eaQaO0c8laOI+dLoTF7SVKvyyepnWozEmmWG9c7JlwQLUvcQrHJ+dSqDFPzAlJ9BrTy1ft/HdSKSahzrB8k56oBp1pxBHECEZUYfuP3nKlWTGFcKIlK7hmPbcqijQEuBO41Wn68mvn8MHRivgLUJaEEvp5CUSsmIVwoIPYk1XbJqFWSSEF8XxJuy6X6rntUI44k/j9Pa5pxqagisXCZ7nbV2+cnkKTPLm43KTPGj5z0npuI5OWUOmcqxefe6vmzMpXmeK6nzGbtT3iPUZrXrM8pTzWxyai1/DjFTx1LQnGVVru3qUi0mILCPqZ9py5QSYMh0zitsTaJKhILw2iLaAMFT11FKZLr1EUyai0+Qp8dKyOdtmJ6J0X1Nj2I77uIkk6XUauciKid6nMSabrfZspVLybyOspYN5fmJKSTVFEM5K1ldDppEQV4exi5FhPyouzvjI0k2jiXpkal9BQU+W0qPiCiY9I71FN8TlJs8CJKSi+iBqWJW1c9FacnUVhwvNYXHyJqzqAYr7dpW951Vf/krWWUHh9C3H1joy8vJuTL6Fg/SM6JuktEJMBblKK3SKkHXyGRwI2CU34zWlBkl5JorKIIGs0L46nlsW/BSVf5wIrHA8/KB6ukBgJfjMCmD1+Hk6UFOOfhcOoOweLw8XC0fBZDRgwHrt/GY9c6UQtqSxvBf2kwBugLqc7Dd7+8gsAxPT8vz3MZh+DR55AmadKOhOxuK5rtnOFsp/z9ewtwL72O8LWxmOlppxnOs8WoBYnYG+WJu0XfY8eSN/CXgeMwMyblIaqTzuOrrOHYmLoZ87yHwBIW4EaG4P1pfMP2ywZxgCA2BpGT+eB4AGANxwkhmDs8E9klSgNowt2f9mJNZTA+ihLAVWHgx+P4mBz5IZaMMXIKE/KiQnwIWUOjkfrpPHg7WgM8W4wMXYBprv0BNCF3pwgdSzcgcsooOFgq9vIsHTFyyvv4ZGkH1idlo0l9m1R2Dy3Ndhjm/LzK24TH8SEI/wBfzPSEVhb/cPRzGIaX7a7hRpNxKQL62WHYy/1RdKPZqNDBYsw72HNkBxKS9uFw1CuweSi9ZfzZeOwFSCVC6JIggW8g0OIZWFnw9P9tDrpvoloih+tgW+j2OG3Hb6eO4HKoP8YoDb14w+AX7IpvDv6Ieo37OxYYFLgC+3wLsHyCG3ymvYV3IqKxKfkwLtu8ginunI72reHo9SYWLPsXtqaeRVnLKXw0vhyxYV+i8O7DuDX8OuI2zMWoh+rgagtXJ1tNh02eBays1d9693A1Px/D3hgHF0utHPOc4DvFz/ApjOZFjVnR2DB/jKIYardTg4tp3+PjwCHod59S0xL2gXHIPnQRFeqz7yB/RO/zwcXlr2KQzzTMe2cxojcl48DlgRBMccOzxvpjbmwc8MKgalyuvGVC8AA4vGAH6eVKNBgL5dliZMhirFw6GxOcmFMtQzfmEyFYeiLsVCwEQy0BtKH0+6P4seFRPrvzELCwh4tPP5TX6/kGKL+K7P2ZKFo7EQNUE5c1Rszehbr9p5CnfX2WzpiwIA4HJGWQpO2BKP5dBLq149zqtxB5uAK90TI0FmajsFHreJ4NXKeG4V274/jBoNDBVJ6BlXYBeCxY4LkB/dHeqSv/csg6O40cbiQv6lhbQe8l9rPFEPcQiEruaao01V9lK+GtIbC0htMEIeIO5KFJkoZvRHF4N5CPznOxeDPyCKpMes7GjLQ0oqbJBaNHmLJWu4PGmlvgjx4Bx0feMcbTgBlVcNZweNFZ8U30FooOfI3sqnbzdccUeDZwdneAtKJex/YfofPyDxDROhR3yjUnLfkNnA6/gm/PVvdKWOVXcXTNl5C0KSVFPFg6uGN84DysWe2P9AN5qFMFt6Pyh4/w8Wm145XI2nCrqT+4555kQeMzeGH8JPDEJ/GztoKsS4qz4vOGDzeYlz7AG4ZXZz6P/xy6iBaT6kYHqo4mYLtEbfVg6QD38UGYt2YlgtPTkGvSA9EEWZeRIvuIkDdew5VbL8FlsAmrFPktXLvSAR8Xe6Mrzd5n4kZjcdo1Jt1m6ORJnrUeHHtXeDtJcDb/umqVQW2VuJD2FTbtKkCb3gOfh5e/P/C/C/jlvi2vO7iSkYu/RvwdL1tpbyM5YkKoAJXf5aFaeZj8Jsr2J2P7rrOoUE26BFnDJRw9mgf3iW6w52m2vy8mDtvPSFVSbWqT4szORKTw5+JN9+fUYi1gzx8Fp6ws5Dco7w91o60qD2lffIJdBaZstzxOeLBym4H46T9j8fufI72gCm3UgcZfTmDn0s3IGjjcyPGG8tIXrOA8fQWWV29A+CdpKG7UGrvk5RC8l6a2ldqFhrLj2L59D85UtPROsrJ6FB79LzLcx8LDXn25ZAEbx6HoV16ndh+pA3W5X2FtzMHf0e+etvue807UXDyPHMEkjB1m/C4f1RTiVM5oCMYOheF1cgcqz5/A0TaACwpHxGRnI/GMp5bHInVQk6Dqf/lTgqSV5PXHKUopafVQqMdqxSQEiBMkU1GHnLokCcQHiAtJIWk3Ubc0hUL0yVDhQoKdhdSh0SEZtRYfoOipHmpyVQEtit9LudoqJ23u5FC8Z4BK5abz+jzUVG/dZZQ611NNovs2pUjbibor6NiGf9Pub7co5MAKGbb3HForyumRp6u4RyX7P6dDeVm0J0ZdHjyRwraeUKnGNJDfpuL9H9JUpaQZHPEDFlF8Sq5m280ZFOPB6Rw7LmgbXbqj3o92kqa83SPZ1vXiZtDOojYd7b5IISmlPRJ3jfGYRDGZjWp9bqbyMyKKEQYQH27kL4wlUW4lVZqi7tKVl54EUHPmevLQ894ISiq4XyLfdY1yRWsp1NtJc+x2n6VyjbFup8pjn1LC7t2UoJCtQynbXrtb93ups5RS5/uRr3A1bdkSQ5HTJ5JfhIiOfz2fACfyi89WKMbaqGjnDNPGuq85V8WXU+ocP5ovrjRBJt1BlakLyGm+mK4ZC5bX0LEITwImUvTpG0yCzdALj4jY6rhP3EXproXwz5+DSzumYTD7aveIkaHu8BK8Wr4Qv670hv7ft3iC8kJtqMrLwU8NVnDx8sXfXDgzrBAInYWfIWB2PeLOr8fkQUY21TovYVvAMtTGHcTmyYMN97flDKI9ArFjnAgFB+fDXXtHgMFQ8HRuwf0u+sN99j/wQfkepP7cYu7OPAXcQW15A8a5DDJy3+EJyguPw/DxAoRMC4C3WYoPAKrByS9OwCshHAHGig+6UHfyG6R6rcSyACPFB4Q7hZnYV/cG1sXMYMWHYRC2AnogutFWWoCSgV7wZhLTR4esHoXirVi1azA2HYyEj42xiZLlxWSoGaXnr2LghDFwMqp87Mu4ytFWsAux59yxesVrcGT1h2EAVoAYfyDkaMmKw/jX1uNXAOB8ERq1BCvem8WeJWEw/oSwAsRgMBgMs8DuATEYDAbDLLACxGAwGAyzwAoQg8FgMMwCK0AMBoPBMAusADEYDAbDLLACxGAwGAyz8H9l9t1k7ZE62AAAAABJRU5ErkJggg==;" vertex="1" parent="1">
          <mxGeometry x="500" y="483.32" width="246" height="98.75" as="geometry" />
        </mxCell>
      </root>
    </mxGraphModel>
  </diagram>
</mxfile>
